<mxfile host="Electron" agent="Mozilla/5.0 (X11; Linux x86_64) AppleWebKit/537.36 (KHTML, like Gecko) draw.io/26.2.2 Chrome/134.0.6998.178 Electron/35.1.2 Safari/537.36" version="26.2.2">
  <diagram name="Page-1" id="d6KpmpLpahqNDAqt6Rkv">
    <mxGraphModel dx="2530" dy="952" grid="1" gridSize="10" guides="1" tooltips="1" connect="1" arrows="1" fold="1" page="1" pageScale="1" pageWidth="850" pageHeight="1100" math="0" shadow="0">
      <root>
        <mxCell id="0" />
        <mxCell id="1" parent="0" />
        <mxCell id="PTQCrg7iBzS0pHnHI-wC-1" value="" style="shape=image;verticalLabelPosition=bottom;labelBackgroundColor=default;verticalAlign=top;aspect=fixed;imageAspect=0;image=data:image/png,iVBORw0KGgoAAAANSUhEUgAAB28AAAJZCAYAAACOQn56AAAABHNCSVQICAgIfAhkiAAAABl0RVh0U29mdHdhcmUAZ25vbWUtc2NyZWVuc2hvdO8Dvz4AAAAtdEVYdENyZWF0aW9uIFRpbWUAVGh1IDAzIEFwciAyMDI1IDA2OjM4OjU4IEFNIEJTVOwbniAAACAASURBVHic7N17fM/1///x+9icxlRTETqRzaEcI6cdzPmQU0RJYS3HyCGlYh0kIhWSWSV0UIql7UPOIUpUxEySxtfhg+Y0Zpu9fn/4eP+8e7+3vd8v7+39mt2ul8suF+/n+/V6vZ/vu/fz9Xpuj/fr9fIxDMMQAMuJiYlRVFSUt7uB/yms/x/btm1T/fr1vd2NAonszCM788jOPLIzj+zMIzvzyM48sjOP7MwjO/PIzjyyM4/szCM788jOPLIzj+zMIzvzXMmuSD71BQBQAG3bts3bXSiwyM48sjOP7MwjO/PIzjyyM4/szCM788jOPLIzj+zMIzvzyM48sjOP7MwjO/PIzjyyM8+V7CjeAgAAAAAAAAAAAIAFULwFAAAAAAAAAAAAAAugeAsAAAAAAAAAAAAAFkDxFgAAAAAAAAAAAAAsgOItAAAAAAAAAAAAAFgAxVsAAAAAAAAAAAAAsACKtwAAAAAAAAAAAABgARRvAQAAAAAAAAAAAMACKN4CAAAAAAAAAAAAgAX4Lly4MNeF+vTpkw9dcY1hGPLx8fF2NwAAAAAAAAAAAADAo3y7d++uxx57TOfPn3d4slSpUlqwYIHTFf/8808NHz5cHTt21MCBAyVJ6enpGjhwoPr06aMWLVrYlt2yZYumTZumcePGqUKFCoqKitLixYtVrFgxh+0mJCQoISFBp06dUlZWlh544AFFRkaqVKlSOnnypGbMmKHo6GjPvHsAAAAAAAAAAAAAsIgiJUuWVJcuXZw+2aVLF5UsWdKh3TAMzZo1S02aNNGBAwds7cWKFdPgwYMVGxur1NRUSdKmTZs0bdo0vfDCC6pbt64SExNVpUoVp4XbvXv3av78+Ro7dqwWLlyoOXPm6NSpU5o7d64k6eeff5afn58H3jYAAAAAAAAAAAAAWIuvJHXv3l1Lly61O/u2VKlS6t69u9OVVqxYodTUVA0dOlTPP/+83XMNGjRQzZo1tWDBAtWpU0dvv/22XnrpJd13332SpMTERFWvXt3pdtPT01WkSBGVKVNGklSmTBlFRkYqOTlZmzZtUmxsrAICApSQkKB7771Xb775poKDg7Vt2zZNnTpVK1eu1MaNG1W0aFGVK1dOI0eOVMmSJbV3717FxMQoLS1NGRkZateuna1g3atXL7Vr104nTpzQrl271KdPH+3du1fHjh3TiRMnNHnyZJUqVeoaYwYAAAAAAAAAAACAnBWRJGdn32Z31u2ZM2c0b948RUZGqlKlSjp37pxOnjxpt8xTTz2lNWvWOBRupZyLt7Vq1VKnTp00aNAgzZgxQ/v379dtt92mBx54QE2bNlVgYKBGjx6t9u3bKykpSUePHlWHDh30wQcfaOXKlTpx4oTefvttTZ8+XRUrVtSSJUtkGIY+/vhjPfroo5o5c6amTJmiuXPnKjMzU0eOHNGZM2d0xx13aNSoUWrWrJk+++wz9erVSxMmTFBqaqoOHjx4zSEDAAAAAAAAAAAAQG58r/zj6rNvczrr9qOPPtI999yj+++/X5J066236sCBAwoMDLQt8/vvv+vSpUu69dZbde+999ra09LSdODAgWyLt5LUu3dvdejQQatXr9bLL7+sxo0ba+DAgTp//ryOHDmiKlWqSJL27NmjDh066I477pBhGPr6669VsWJF25nAaWlpql+/vnx8fPTwww9r586d+vXXX/XPP/+odOnS8vX11Z49e1SrVi2FhYVJkpKTk9W9e3fdcMMNunjxok6cOKHKlSubjBYAAAAAAAAAAAAAXGcr3l45+/bTTz/N9qzbxMRErVq1SoGBgYqKipIknT59Wn/99Zfq168vSVq7dq1mz56t119/Xe+9957i4+PVsWNHSZfvaXvjjTeqXLlyeu+99/Ttt99KkkJDQ9WxY0f9+OOP6t+/vwICAtS1a1e1atVKvXv3VpcuXXTkyBHdfffdtnvlJiUlaejQoZKkU6dO6cKFC5o2bZqtrzt27FC1atUUHx+vdevWqW/fvipfvrx++OEHnT592raNunXr2tbZu3ev7X398ccfqlixIpdMBgAAAAAAAAAAAJAvilz9oHv37tmedZuVlaVZs2bp4Ycf1rx58xQTE6OYmBh17txZBw4ckCStXr1as2fP1iuvvKKgoCANGjRICxYs0KlTpyTZXzJ58ODBSkhIUEJCgsaOHauAgADFx8dr9+7dMgxDhmHoxx9/VIkSJVSmTBnt3bvXdtZtenq6Dh8+bHscEBCgEiVK6Oeff5YkrVu3TjNnzpSvr6927Nih5s2b695775VhGFqyZImqVq0q6XLxNjg4WJJ09OhRXbp0Sbfddpuky2f2XnkOAAAAAAAAAAAAAPKa79UPrpx96+ys22XLlikrK0u9evWya69atap+/PFHrVy5UrGxsXr11VcVFBQkSQoODlbjxo0VGxur0aNHKzExUXXq1HHakcqVK+uZZ57R+++/r//+97/y8fHR3Xffrddff13+/v666aabtGTJElWuXFlVq1bVXXfdJV/fy90vWrSoxowZo7lz5+qDDz7QrbfeqokTJ8rX11ddu3bV9OnTtWnTJpUoUULly5dXyZIllZGRof3796tatWqSLhdyr/z7yuMGDRpcQ7QAAAAAAAAAAAAA4Drffzf06dPH6YKdO3dW586dHdqbNGmiJk2aSJJatWrl8PyIESNs/46Ojs6xM82aNVOzZs2cPteqVSu77U+dOtXu+QYNGjgttgYHB2vOnDlOtxkXF2f7d2hoqEJDQ22PX3jhhRz7CgAAAAAAAAAAAACeVCT3RQAAAAAAAAAAAAAAeY3iLQAAAAAAAAAAAABYgEPxdt26dV7oBgAAAAAAAAAAAAAUbhRvAQAAAAAAAAAAAMACuGwyAAAAAAAAAAAAAFgAxVsAAAAAAAAAAAAAsACKtwAAAAAAAAAAAABgARRvAQAAAAAAAAAAAMACKN4CAAAAAAAAAAAAgAVQvAUAAAAAAAAAAAAAC6B4CwAAAAAAAAAAAAAWQPEWAAAAAAAAAAAAACyA4i0AAAAAAAAAAAAAWADFWwAAAAAAAAAAAACwAB/DMIyrG6KjoxUdHe2l7gC4IiYmRlFRUd7uBv4nJiZG06ZN83Y3AAAAAAAAAADAdczX2x0AgIIiKSnJ213Id3yJwDyyM4/szCM788jOPLIzj+zMIzvzyM48sjOP7MwjO/PIzjyyM4/szCM788jOPLIzj+zMcyU7LpsMAAAAAAAAAAAAABZA8RYAAAAAAAAAAAAALIDiLQAAAAAAAAAAAABYAMVbAAAAAAAAAAAAALAAircAAAAAAAAAAAAAYAG+3u5AUlKSnn32WUlSVlaWsrKy5Ot7uVtt27ZVnTp19Prrr6tMmTK2dQzDUJ06dfT000+rZMmSio2N1dKlS1W0aFG7bTdv3lyjR4+2Pf7mm2/0/vvv66233lJwcLCt/b333lNCQoJt/eLFi6tp06bq06ePAgMDtWbNGsXExGj27Nm68cYbbevNnz9fO3bs0OTJkx1eGwAAAAAAAAAAAADc4fXibVBQkOLi4iRJK1as0Jo1azR58mTb85s3b1alSpU0e/ZsW9u5c+c0btw4xcfH66GHHpIktWnTRsOGDcvxtRISEhQeHq6lS5fqueees3uuU6dOeuqpp2zb//DDDzVu3DjNmjVLLVq00LZt2zR9+nS98sorkqTdu3dr+fLleueddyjcAgAAAAAAAAAAALhmBfKyyefOndP58+dVqlQpl9fZsWOHzp49q/79+2vLli06fvx4tsuWLl1aQ4cO1YULF7R161ZJ0pAhQ3To0CElJCTowoULmjp1qoYPH66bb775mt8PAAAAAAAAAAAAAHj9zFtXJCcnq0ePHrp06ZIyMzNVsWJFtW7dWm3btrUts3LlSn3//fd2640YMUJNmzaVJMXHxys8PFyBgYGqXbu2li1bpv79+2f7mkWKFNE999yjAwcOqHHjxipVqpSeffZZTZgwQb/++qsaN26sRo0a5c0bBgAAAAAAAAAAAFDoOBRvExISNG/ePJdW7tixo2bOnOnpPjm4/fbbNXv2bGVlZWnx4sVatWqVIiIiVKTI/z9xuFWrVtleNjklJUWbN2/Wu+++K0lq2bKlZsyYoUceeUQlSpTI9nV9fHxUvHhx2+Pg4GC1adNGmzdvtt2nFwAAAAAAAAAAAAA8waF42759e0VHR3uhK7krUqSIevbsqaSkJL311luaOHGiS+stX75ckmzvyzAMnT9/XqtWrVLHjh2drpORkaGkpCS1b9/err18+fK6+eab5etbIE5aBgAAAAAAAAAAAFBAFMgK5KBBgxQVFaV169YpLCwsx2WzsrK0fPlyDRs2TK1atbK1L1iwQHFxcerQoYPDOufOnVNsbKzKli2runXrerr7AAAAAAAAAAAAAOCgQBZvy5Urp169emnu3Llq2LChJOm7777T2rVr7ZarUKGCHnvsMWVlZSk8PNzuua5duyouLk5bt26VdPmeuCtWrJCPj49KlSqlOnXq6LXXXpOPj0/+vCkAAAAAAAAAAAAAhZqlirdt2rRRmzZt7NoaN26sxo0bOyzbs2dP9ezZU5IUGRmpyMjIbLf7wAMPOLSVLl1aixcvliQ1bNhQgwcPdqmP7du3d7iUMgAAAAAAAAAAAABcqyLe7gAAAAAAAAAAAAAAgOItAAAAAAAAAAAAAFgCxVsAAAAAAAAAAAAAsACKtwAAAAAAAAAAAABgARRvAQAAAAAAAAAAAMACKN4CAAAAAAAAAAAAgAVQvAUAAAAAAAAAAAAAC6B4CwAAAAAAAAAAAAAWQPEWAAAAAAAAAAAAACyA4i0AAAAAAAAAAAAAWADFWwAAAAAAAAAAAACwAIq3AAAAAAAAAAAAAGABFG8BAAAAAAAAAAAAwAIo3gIAAAAAAAAAAACABfgYhmFc3RAdHa3o6GgvdQfAFTExMYqKivJ2N/A/hfX/IyIiQocOHfJ2NwAAAAAAAAAAKBR8vd0BAIB1HTp0SElJSd7uRoFUWAv+nkB25pGdeWRnHtmZR3bmkZ15ZGce2ZlHduaRnXlkZx7ZmUd25pGdeWRnHtmZR3bmuZIdl00GAAAAAAAAAAAAAAugeAsAAAAAAAAAAAAAFkDxFgAAAAAAAAAAAAAsgOItAAAAAAAAAAAAAFgAxVsAAAAAAAAAAAAAsABfb3cgKSlJzz77rCQpKytLWVlZ8vW93K2WLVtq3bp1mjhxooKDg+3Wi46OVu3atdW1a1dlZmbq8ccf1913361XX33VtsyxY8fUr18/LVu2TEWLFrVbf+XKlVq1apUmT56sM2fOqFevXvLz85Mk+fj4qFKlSurevbvCw8Pz8u0DAAAAAAAAAAAAgCQLFG+DgoIUFxcnSVqxYoXWrFmjyZMn254vWrSoVqxYYVe8PXHihHbu3KkxY8ZIkn744Qfdfffd+uOPP3Tw4EFVrlzZVF8+/fRT+fv7yzAM7dq1SxMnTpQkCrgAAAAAAAAAAAAA8pzlL5vcsWNHbdiwQWlpaba2FStWKDQ0VP7+/pKk+Ph4NW7cWCEhIVq6dOk1v6aPj49q1aqlvn376quvvrrm7QEAAAAAAAAAAABAbixfvL399ttVpUoVbdiwQZJkGIa+++47dezYUZKUnJysxMRENWvWTC1bttTq1at15swZj7x2UFCQDhw4IMMwPLI9AAAAAAAAAAAAAMiOw2WTt2zZorCwMJdW7tKli0aMGOHpPjno2LGjli1bplatWmnr1q265ZZbdPfdd0u6fNZto0aNFBAQoICAAJUvX17Lly9Xz549r/l1fXx8VLx4cfn4+FzztgAAAAAAAAAAAAAgJw7F2wceeEDR0dFe6Er2mjRpopiYGB0+fFjLly+3nXWblpamNWvWyM/PT0888YQk6fz581q2bJm6det2za+7c+dO3Xnnnde8HQAAAAAAAAAAAADIjUPx1oqKFi2qtm3baunSpfrzzz81btw4SdLatWtVpkwZxcbGqkiRy1eATk1N1eOPP66NGzeqevXqpl7PMAz9/vvv+vTTTzVs2DCPvQ8AAAAAAAAAAAAAyE6BKN5KUtu2bdWvXz/17NlTvr6Xux0fH69u3brZCreS5O/vrwcffFBLliyxFW979Ohht61XXnnF6Ws89thjki4XiytUqKCBAweqadOmefF2AAAAAAAAAAAAAMCOpYq3bdq0UZs2bZw+FxgYqG+++caubebMmU6X7du3r/r27StJSkhIcLpMrVq11KpVK0lSQEBAtssBAAAAAAAAAAAAQH4okvsiAAAAAAAAAAAAAIC8RvEWAAAAAAAAAAAAACyA4i0AAAAAAAAAAAAAWADFWwAAAAAAAAAAAACwAF9vdwAACoqgoCBvdyHfVapUydtdAAAAAAAAAACg0KB4CwAuSkpK8nYX8l1MTIy3uwAAAAAAAAAAQKHBZZMBAAAAAAAAAAAAwAIo3gIAAAAAAAAAAACABVC8BQAAAAAAAAAAAAALoHgLAAAAAAAAAAAAABZA8RYAAAAAAAAAAAAALIDiLQAAAAAAAAAAAABYAMVbAAAAAAAAAAAAALAAircAAAAAAAAAAAAAYAG+3u4AABQUM2bM0MyZM73djXzRsGFDffTRR5KkzMxM9evXTz/99JOXe1UwkJ15ZGce2ZlHduaRnXlkZx7ZmUd25pGdeWRnHtmZR3bmkZ15ZGce2ZlHduaRnXlkZ5472VG8BQAXDRs2TMOGDfN2N/JFt27dtGvXLknSrl27lJqaqqSkJC/3qmAgO/PIzjyyM4/szCM788jOPLIzj+zMIzvzyM48sjOP7MwjO/PIzjyyM4/szCM788jOPHeyKxodHR19dcO6desUFhaW130EkItt27apfv363u4G/qew/X/s3LlTPj4+Sk9P15kzZyRJLVq08HKvCgayM4/szCM788jOPLIzj+zMIzvzyM48sjOP7MwjO/PIzjyyM4/szCM788jOPLIzj+zMcyc77nkLAHBQs2ZNu28B1axZ08s9KjjcyS45OVnHjx/Pr65ZHp8787ydXUZGhnbs2JGvr+kp3s6uICM78/LqWPHLL7/IMAyP9PEKq43vgpSd1ZCdeQVpfldYxmxh4O3srPZZcoe3syvImN+ZR3bmkZ15ZGce2Znn7eNsYZmjULwFgGuUmpqqfv36qVmzZmrZsqUmTZqkrKwsb3frmtSoUUO7d++WJO3evVs1atRwWKZ69eoKCwuz+5k4cWJ+d9Vycsvu6NGjmjRpkkJDQxUWFqbffvvNpe1+/fXXateunSIiItS4cWNt2LDB4333Nlc+d8uWLVPbtm0VEhKili1bKjIyUv/880+O2z18+LCCg4PVpEmTPOm3FeTVmM3tc5eQkKC+ffsqJCSkwF5W3pPZVatWzWG5sLAwVa9ePdvXv3jxot566y21aNFCYWFhCgkJ0alTpzz3BvOQpz93x44dU9euXfXAAw+oWbNmmjNnTq59iIuL0+23367nnnvu2t5MPvPkseK3337TyJEj1ahRI7Vu3VqXLl3KdtmLFy9q/PjxatasmcLDw9W5c2dbP/7NquPbW9mdPHlSI0eOVNOmTRUeHq6WLVsqLi4ux75abXx7K7t58+Y57Atatmypv//+O8f+Wml8e3N+9/bbbyskJEQtWrRQhw4dtHnzZqfbKgxj9mquZPfjjz+qWbNmtt/Tvv/++xy3eT2PWXfmKGY/S9fzmHV1jmLmWGE1rszvfvrpJ7Vv314hISEKDw/X5MmTsz0O7N27V23atLHt+5ctW5bta7u6v7MqT2e3YMEC21iNiIjIMTvJevswd+SWXZ8+fdSkSROHfViFChV04MABu2UPHDigChUqOCwbHx/v8LqFYcy6k93VPDlHsSpPZ7d8+XK1atVKLVq0UEREhO2+ptm5nsesO8fZS5cu6e2331bz5s0VGhqq8PBwvf76607/tu7OHMWq49ud7GT8y4QJE/7dZMrp06c9sh2gsJozZ463u4Cr5PT/8fDDDxtffPGF7fELL7xgTJkyJT+6lWcyMjKMatWqGbNmzTKqVatmZGRkOCwTERHhhZ5ZX27Zbdu2zfjyyy+Nc+fOGZMmTTJWrlyZ4/aysrKMp556yhg3bpxx5syZvOy61+WWXXJysjFy5Ejj1KlTtrbNmzcb3bt3z3G7ffr0MX766ScjNDQ0L7ptCZ4es65+7t5//33j999/d3v7VuLJ7AYNGuTQduHCBaN169ZOl//nn3+M1q1bG/PnzzcyMzPd67gFePpz17FjR2P9+vW2bT/zzDNGbGxstsunpaUZzZo1M1auXGmMHTvW/TfgRZ48VixdutRYu3atkZmZabRp08bp/8MVffv2NWJjY42srCzDMC7vV8PDw40DBw44LGvV8e2t7CZPnmy3rQsXLhhPPPGEsWHDBqfLW3F8eyu7jz76yFiwYIFbfbXa+PbW/G7q1KnGhAkTbJ+hs2fPGo8//riRmJjosGxhGLOG4Xp2p0+fNpo0aWIkJycbhnF5TLZt29aW0b9d72PWnTmKmc/S9T5mXZ2juHussKLcsvvtt9+M8PBw4/Dhw7a2GTNmGKNGjXLY1rlz54wGDRoYe/bsMQzDMM6fP2+0bt3a2LJli8Oy7uzvrMqT2c2dO9cYOHCgcf78ecMwDCM1NdV47LHHjG+++cbpa1txH+aO3LJ77rnnnNYa2rVrZ5w9e9au7a+//jIGDBjg0usWhjHrTnaGkTdzFKvyZHZbtmwxHnzwQdvyly5dMqZMmWLMnz/f6Wtf72PWnePsN998Y8yaNcsuh/fee894/fXXHZZ1Z45i1fHtTna+eVVBbtGihTp16qTIyEhVrFgxr14GALxq7969SklJUY8ePWxt0dHRaty4sZ555hn5+ubZbjZP+fr6qmbNmkpMTFTNmjUL7Pvwhtyyq1evnurVq+fy9qZPn66GDRuqf//+nu6q5eSWXeXKlTVt2jS7tgceeEAXL17U2bNnVaZMGYdtbtq0ScWLF9f999+fp333Nk+PWVc/d0899dQ1vY4VeDK79957z6Htu+++U0REhNPlhwwZojfffFP33Xef6df0Jk9ml5iYqIoVKyokJMS27SlTpigsLEz9+/eXj4+PwzpTp05VVFSUSpcubfp1vcWTx4rOnTu7tNypU6dUvHhxDRgwwNZWuXJlTZgwQR9++KFefvllu+WtOr69kZ0kPfvss3aPS5QoocGDB2vRokVq1qyZw/JWHN/eys4Mq41vb83vvvvuOy1ZskRFixaVJJUuXVpRUVH67LPPCuWYlVzP7pNPPtGwYcNUuXJlSdKNN96od999Vy+//LIWLlzosPz1PmbdmaOY+Sxdz2PWnTmKu8cKK8otuy+//FLvv/++KlSoYGsbOnSo2rRpo4sXL6p48eK29k8//VRdu3ZVUFCQJKlkyZKaPn26oqOj9cUXX9ht1539nVV5Mru1a9fq448/tm2jVKlSiomJUZcuXdSpUyeH17biPswduWU3adIkh3VSUlLk5+d3TfudwjBm3c0uL+YoVuXJ7FavXq2BAwcqICBAklSkSBGNGjVK7dq102OPPeawnet9zLpznHW2Txs0aJDCwsL0/PPP27W7M0ex6vh2J7s8u2zy6dOn9eWXX6ply5Z6+eWX9X//939Ol0tKSlLnzp3VuXNnderUSR06dLA9nj17tjZu3GjX1q1bN7300ktKSkpy2NY333yj9u3ba8+ePS5tW5IyMzP16KOP6qWXXsqrKIB8s3btWg0fPlwDBw7UG2+8obS0NLvnMzMzNWrUKLtLBGzdulVDhw7Vk08+qUmTJik1NTW/u12gbdiwQd26dbNr8/X1Vd26dbVv3z4v9cozatSooeTkZKeX+pEuT1geeeQRhYWFqVGjRurUqVOOl1wpTHLLzlUZGRnatGlToSjcXuFuditXrtSePXvk7+/v8FxWVpZeeuklvf76657upiV5aszyuXN0Lfu7pUuXqkuXLg7tv/zyi+65554C+8vaFZ7Kbv/+/apWrZpdm6+vr+rVq6dff/3VYflDhw5p/fr16tOnj0fehzd46ljhqhtuuEExMTEO7aVKlXKYM1pdfmfnzOnTpzVlyhRVqVLF4Tkrj29vZffJJ58oIiJCoaGhqlevnmbMmJHtslYd396Y3/Xo0UMTJkzQhQsXJEnHjx/XG2+8oRIlSlxTH/KbN7Jzdly55557dOjQIYdLlBbWMZvdHMVd1/uYdXeOcrWcjhVWllN2r776qkMeklSsWDFlZmbatX3//ffq3r27w7aPHDnisH5h2N+5k90nn3zi8Ad9X19fp5cRtfI+zB3ujtlly5apY8eOTp/btm2bOnbsqPDwcNWrV0+DBw92ab57PY5ZZ7LLjjlK7rLLrmPHjpo9e7aOHj0q6fIlkV955RWn2yisY9ZVly5d0pQpU3Trrbd6dLtWGt+uZpdnxVtfX1/dfvvtqlChQo5F3KCgIMXFxSkuLk5Dhw5VrVq1bI8HDRokSbrrrrtsbYsWLVKTJk00btw4HT582G5bCQkJCg8P19KlS13e9g8//KC7775bf/zxhw4ePJhXcQB57vfff9eCBQs0YcIEzZ49W35+fvryyy/tlpk7d66OHTtme3z69Gm98847GjdunObOnauKFSvmej1+2Dt+/LjuuOMOh/a77rqrwO9TatasqWPHjmV74/SBAwfq1Vdf1bp16/Tjjz9q/Pjx6tu3b473PCsscsvOVVu3blXDhg31559/6uGHH1ZISIiefPJJpaSkeKin1uNqdn379lXFihX16KOPas6cOSpSxHFKM3fuXHXq1Em33HJLXnXXUjw1ZvncOTK7v7t06ZLTP/hJ0n/+8x+1b99eq1evVuvWrW33dSlo+1BPZVe1alXt2LHDru3s2bOKi4tTYmKiw3afe+45TZo0yekZuQWFp44V1yIjI0Pjx4/Xk08+6bU+mOHNq682CwAAIABJREFU7FavXq2GDRvqlltuka+vryIjIx2WsfL49kZ2DRo0UL9+/bR8+XKtX79eP/74o3755RctWrTI6fJWHd/emN9FRkaqdOnSKleunOrXr6/bbrtNSUlJioqKuqY+5DdvZOfsuLJ9+3Zt3LjR7ndiqXCO2ZzmKO663sesu3MUybVjhZW5m92KFStUoUIFhy/UZvf3En9/f6Wnp9u1Fdb9XXbZOTNhwgT17dvXod3K+zB3uJtdXFycHnzwQYf2m2++WZGRkVq4cKHWrl2r7du3q169enrmmWey3VZhG7PZZcccJXfZZXffffdp+PDhuvPOO1WvXj2VK1dO06ZNU3R0tMOyhXXM5ubo0aOKiIjQTTfdpE8//dThyntmWXF8u5pdnhVvryhRooTTIu7evXtNbc/Pz0/t2rVTo0aN7G7UvmPHDp09e1b9+/fXli1bdPz4cZe2Fx8fr8aNGyskJMRW9AUKorVr16pDhw666aab5OPjo6ioKLVt29bu+QsXLqhBgwa2tivf9LntttskSe3bt9f69etlGEa+97+gyszMdPqtMj8/P128eNELPfKcGjVq6Ny5c9l+C+jJJ5+0+7bS/fffr9atWyshISG/umhZuWXnqmPHjiklJUUDBgxQdHS0vv/+e/Xp00fdunUrcJM6V7ma3fz585WYmKg333zT6fMpKSm2y+UVFp4as3zuHJnd323YsEFNmzZ1+tyxY8e0fv16zZkzR4sWLdKaNWvk7++vkSNHmn8jXuCp7IKCgnTmzBl9/vnnkqQTJ07o0Ucf1cMPP6yTJ0/aLbthwwaVKlVK9evX9/C7yV+eOlaYlZGRob59++qpp55S1apVvdIHs7yZXUREhH766Sdt2LBBDRs2dHoGjJXHtzeyq1Wrlnr27Ck/Pz9Jl+fJM2bM0Jw5cxyWtfL49sb8bvXq1dq2bZv+/vtvbdu2Tbt27dKCBQsUGBh4TX3Ib97Irnfv3nr//fdtZ0bu2LFDI0aMUJ8+fRyOK4VxzOY0R3F3O9f7mHVnjnKFK8cKK3Mnu++//17vvvuu3nnnHYfnsvt7ia+vr0PxtjDu73LK7t/eeustpaenOz3D3cr7MHe4k9358+d19uxZp2fm+fv7a8iQIbrhhhtsbZGRkdq/f79OnTrldHuFaczmlB1zlJzllN2RI0cUHR2tn376Sdu3b9ehQ4f0xRdfqGHDhg7LFsYx64ry5ctr9erV2rlzpx5//HGHKxKYZcXx7Wp2eV68veJKETcwMFCzZ8/WI488ck3bCwoKsrvkWnx8vMLDwxUYGKjatWvbFXazk5ycrMTERDVr1kwtW7bU6tWrdebMmWvqF+At//d//6e0tDS98MILioyMVGxsrEqVKiVJOnDggL799lsNGTLEbp0TJ06oXLlytseBgYFKS0vTuXPn8rXvBVmxYsWUkZHh0J6Wllbg7xMbFBSkjIwM2/1pXNGgQQPt3r07D3tVMJjJzpmyZctqxowZio2NVfXq1SVJoaGhatGihf7zn/94oquW4052AQEBevzxx7Vq1Sr99ddfds9NmDBBL730UoEfh+7w1Jjlc+caV/Z3S5YsUdeuXZ0+V7ZsWS1cuFALFy7UjTfeKB8fHw0fPlyJiYk6ffq0W/33Jk9mt2DBAm3ZskXNmjXTgAED9Pzzz6tu3bp297POysrS+PHjNXHiRI/035s8dawwIzU1VT169NDDDz/skUtm5jdvZndFw4YN1atXLz333HMOz1l5fFshO+nyH1b//YVRq49vb8zvJk2apPnz59t+Z6tWrZp8fHz0zTffXFMf8ps3sgsICNAnn3yiiRMnKjQ0VG+99ZY+++wzFS9e3O64cmW7hW3M5jRHcVVhGbOSa3MUZ3I6VliZq9l9++23mjJlir744guVLFnS4Xl3/l5S2PZ3uWV3tfHjx+u///1vtl9ctvI+zB3ujNkVK1aodevWbm2/bt26Tm/DeLXrfcxKOWfHHCVnOWX3zjvvaMKECbZLIZctW1YhISFOx21hHLPuuP322zV8+HBNmDDBoycQWGl8u5qdw180b7jhBqenczsTFhamsLAwl5ZNS0vTf//7X126dEmDBg1S7969XVovJ1du5J6SkqLNmzfr3XfflSS1bNlSM2bM0COPPJLjddbj4+PVqFEjBQQEKCAgQOXLl9fy5cvVs2fPa+4bkN8yMzO1fft2jR8/XqVKldKsWbMUGxuryMhITZ8+Xc8++6xtzFyR3TdNnF1+FM5VrlzZ6b37/v77b3Xo0CH/O+RBSUlJ8vPzU1JSkmrXru3SOikpKYWqWJYdM9k5ExwcrNDQUIczomrXrl3g76mcHTPZhYSEaPHixRozZoyt7ddff9WOHTvs/pj066+/6umnn7bNF643nhqzfO48t7/btm1btt+kDw4OVp8+fVSsWDG79lq1aumvv/5SnTp1XOu8l3kyO39/f7399tt2bbGxsXaXODty5IiOHTumHj162NrOnDmjEydOqFq1agXqXs2eOla468SJE+rZs6fGjh2rNm3a5NvrepK3svu3ChUqaOfOnQ7tVh7fVslOunzZ0atZfXx7Y35nGIbdmUOSVK9ePXXt2tXpJfusyltz4ypVqtjdSigrK0u7d+9W5cqVHbZb2MZsTnMUVxWWMSu5NkfJTnbHCitzJbuPPvpI33zzjRYvXpzt316v/L3knnvusWtPSUlxWKcw7e9cyU66fHnzwYMHq1KlStneO1Oy9j7MHe6M2aVLl+qll15ya/uu/r3qeh2zV+SUHXMU89n98ccfev755+3a/P39tXHjRhmGYXdrgcI4Zt1VpEgRVahQQdu3b9f999/vse1aZXy7mp3DHmvEiBEe7cjVRdtevXopMjJSFStWvObt/v7777rzzjslScuXL5ckW9HZMAydP39eq1atyvbG5WlpaVqzZo38/Pz0xBNPSLp86vuyZcvUrVs3ig8ocAIDA1WlShWVLVtW0uUvMcyePVu//fabjh07ZvtWyfnz5/XDDz8oJSVFd9xxh/bs2WPbxj///KNSpUrZzthF7po0aaIhQ4bY3SsuIyNDmzZt0nvvvefFnl273bt3q3Tp0tq9e7fDgeTQoUOqVKmSwzr/+c9/HM7wLoxyys4dt912m86dO6czZ84oICDA1r53716HX4CvF2ay+/nnnx0uW/P99987LBcWFnbdFm4lz41ZPnee2d9t375ddevWzfb5Nm3aqGfPnnr22Wft2vft2+f03mBWlZfHii1btujIkSOqVauWra1ixYoOZ+1u2bJFS5cu9fofid3lqWOFO/7++2/16tVL06ZNU5MmTfLlNfOCN7Jz5ty5czpy5IhDu5XHd35nd+HCBZ0/f97hEnp79+5VhQoV7NqsPr69Mb/z8/PTuXPnVLp0aVvbrl27Ctzva1aZG0+fPl1t27ZV0aJF7doL25jNbY7iqsIyZp1xNkfJTnbHCivLLbs33nhDu3bt0pdffpnj30+bNWumJUuW2I2tnTt32m7ddbXCsr9zNbu0tDQ9+uijatGiRa7zZivvw9zh6pjNzMzUgQMHsr3th7PfQTIyMrRt27ZCO2avyC075ijmswsKCtJvv/2mkJAQW1t6eroOHTrkcE/4wjZmzfr55581YMAAj27TKuPb1ezy7PS6zMxMJScn68iRI+rRo4dWrVqlCRMmXHPhNjMzU/Hx8dq2bZs6dOigrKwsLV++XMOGDdO8efM0b948ffzxx3r44YcVFxeX7b07165dqzJlymjhwoW29T766CNduHBBGzduvKY+At7QtGlTbd68WWlpaTIMQ5s3b1ZQUJCaNGmizz//XAsWLNCCBQvUvHlzPfroo3riiSdUr149JSUl6eDBg5KkhIQENWrUyOGgguzdcccd8vf319dff21ri46O1hNPPGG7r1dBtWvXLt16663atWuXw3Mffvihhg0bZnep+Q8++ECpqalq1KhRfnbTknLKzl2jRo1SVFSU0tLSJF3+dlZcXJzat29/zdu2opyyGz16tObOnWt36a24uDh99dVX13w7huuBJ8csn7v/z+z+bsmSJTlejvbKrT6mT59ut87NN9+sG2+80eQ7yX95kV1mZqY++ugjvfLKK5o/f36e9NsKPHmscPX1evfurQ8++MCucJuenm77MmxBkd/Z7du3T927d9cff/xhazt58qQeeeQRp2ddWXl853d2J0+eVOfOnbV+/Xpb25EjRxQZGanx48fnSx88xRvzu+HDh+vJJ5/UhQsXJF2+R9rAgQM1aNCga+5DfvL23Pj06dMaO3as9u/f73BWjFT4xmxuc5TrRV5kl9Mcxd1jhZXllN2IESP0zz//aP78+XbFx5UrV9r2VVc89NBD+uKLL7R3715Jl7/QM3r0aI0bN85hu4Vhf+dqdmfOnFHnzp3Vu3dvh8JtXFycw3atvA9zh6tjdv369XYFsn976qmnNGfOHNvlVtPT0zV48GA99thjdlckLCxj9mq5ZScxR8lObtkNGzZML774ou1v7BkZGRo6dKjd1SmuKGxjNjedOnXSmjVrbI8zMzM1YcIElS9f3vQJBFYf365ml2enl5YtW1adOnXyyJm2f/31l7p16ybp8v0SqlatqjfeeEM333yztmzZoqysLIWHh9ut07VrV8XFxWnr1q1ObwwdHx+vbt262V0e1t/fXw8++KCWLFni8uWgAasICQnRP//8o5EjRyozM1N33XWXhg0bluM6ZcuW1TPPPKMpU6bo4sWLuu222zRq1Kh86vH1IzY2VmPGjNHs2bN19uxZtW3b1u7yrQXV7t27dfvttzu9L+H48eMVHx+vHj16KD09XadOnVJYWJg++eQTL/TUenLKbsWKFZo0aZKky/de/+yzz3TjjTfK19dXMTExuvvuu+2W79y5s86ePauIiAgZhqFSpUpp7ty5Bf7LAdnJKbtXXnlFM2fOVOvWreXj46NLly7p3nvv1erVq+Xv75/tNkePHq2ff/5Zv/76q4YPH37Nl4izKk+OWVc/d71797Z9a/G3336zzZ/Cw8M1YcIEz77BPJQX+7u9e/fmmsGbb76pF198UY0bN1ZWVpaqVatW4K7a4Kns/vzzT/Xt29d26aguXbpo2bJlDmdHXe3ixYvq1q2bjhw5ohMnTigoKEj9+vXz3JvLY546VkyePNl2D6odO3YoIiJCPj4+CgwM1OLFi21fyvvyyy91/Phxh7Oh0tPTVaNGDbVt29au3crjO7+zq1q1qsaOHavx48fbMilatKhGjhyZ7W0yrDq+8zu7SpUq6dtvv9X48eM1fvx4paeny8/PT6+99lqOl0Cz4vj2xvyuXbt2OnnypMLCwlSsWDEVLVpU0dHRCg0NdehDYRizkuvZffXVV5o2bZpKlCihEiVKaMiQITne1uZ6H7NXy22OYuazdD2PWVfnKGaOFVaVU3Zz5sxR7dq11bhxY7v2/fv364cffrA7K61kyZJatGiRRo0apXPnzik1NVVjxoxxWFdyb39nZZ7Ibvv27fr11181depUTZ061W7ZEydOqHPnzg7btuo+zB05ZXe1jRs36qGHHsr2+WXLlumdd95RRESEsrKylJqaqieffFIDBw60W66wjNmr5ZadlDdzFCvzVHYVKlTQtGnT9MQTT9gK2j179tTTTz/tdPnrfcy6c5ydPXu2pk6dqpdffllFihTRpUuX1LVrV82bN89hu67OUaw+vl3NTkYeOX36dF5tGigU5syZ4+0u4CqF7f8jIyPDqFatmjFr1iyjWrVqRkZGhre7VGCQnXlkZx7ZmUd25pGdeWRnHtmZR3bmkZ15ZGce2ZlHduaRnXlkZx7ZmUd25pGdeWRnnjvZ5dllk6++LjoAoGDZtWuXatasKV9fX9WsWTPfLq13PSA788jOPLIzj+zMIzvzyM48sjOP7MwjO/PIzjyyM4/szCM788jOPLIzj+zMIzvzyM48d7IrGh0dHZ1/XQPgqm3btql+/fre7gb+p7D9f6xdu1bS5UtrFytWTD4+Prr33nu93KuCgezMIzvzyM48sjOP7MwjO/PIzjyyM4/szCM788jOPLIzj+zMIzvzyM48sjOP7MwjO/PcyS7PzrwFABRcV74FJIlvULmJ7MwjO/PIzjyyM4/szCM788jOPLIzj+zMIzvzyM48sjOP7MwjO/PIzjyyM4/szCM789zJjuItAMDB7t27VaNGDUlSjRo1nN5AHc6RnXlkZx7ZmUd25pGdeWRnHtmZR3bmkZ15ZGce2ZlHduaRnXlkZx7ZmUd25pGdeWRnnjvZ+eZXpwCgoJsxY4Zmzpzp7W7ki4YNG6pmzZr68ccfVbNmTfn7+ysoKMjb3SoQyM48sjOP7MwjO/PIzjyyM4/szCM788jOPLIzj+zMIzvzyM48sjOP7MwjO/PIzjyyM8+d7CjeAoCLhg0bpmHDhnm7G/nO19dXCxYs8HY3CiSyM4/szCM788jOPLIzj+zMIzvzyM48sjOP7MwjO/PIzjyyM4/szCM788jOPLIzj+zMyy07LpsMAAAAAAAAAAAAABZA8RYAAAAAAAAAAAAALIDiLQAAAAAAAAAAAABYAMVbAAAAAAAAAAAAALAAircAAAAAAAAAAAAAYAEUbwEAAAAAAAAAAADAAijeAgAAAAAAAAAAAIAFULwFAAAAAAAAAAAAAAugeAsAAAAAAAAAAAAAFkDxFgAAAAAAAAAAAAAsgOItAAAAAAAAAAAAAFgAxVsAAAAAAAAAAAAAsACKtwAAAAAAAAAAAABgARRvAQAAAAAAAAAAAMACKN4CAAAAAAAAAAAAgAVQvAUAAAAAAAAAAAAAC8i1eJuampof/QAAAAAAAAAAAACAQs13+/btevHFF7Nd4LXXXlO9evVsj3/55ReNHz9e/v7+dsuNHDlSDRs21OOPP66RI0eqdu3a+vjjj7VkyRKVKFHCbtkPPvhA/v7+2r9/vxYuXKg9e/aoSJEiqly5svr166dq1ap59l0CAAAAAAAAAAAAgMX51qtXT/Xr19e2bdscnqxfv75d4VaSdu/erfDwcI0cOdJh+ZMnT+rkyZO24mtiYqKGDBmiVq1aOSy7fft2vfHGGxowYIDGjRunokWLauPGjXr++ec1efJkVa1a1UNvEQAAAAAAAAAAAACsr4gkde3a1emTztr37NmjOnXqOF0+MTFRd955p0qWLKmsrCzt3btXdevWdVguPT1db731loYMGaI2bdrI19dXPj4+at68uVq1aqW4uLhreU8AAAAAAAAAAAAAUOD4SpKzs2+dnXVrGIb27Nmjffv2KTY21tYeEhKigQMHKjExUdWrV5ck7d+/X+np6Xr66afttvHUU08pICBAPj4+Cg0NdejQ7bffrg0bNnjuHQIAAAAAAAAAAABAAeB75R9du3a1K946O+s2OTlZxYoV0yeffOJ0Y4mJierYsaOky2foNm/eXGPHjnVYbuXKlapQoYLTbSQnJ+uWW25x710AAAAAAAAAAAAAQAFX5Mo/rpx9Kzk/61a6XJy9cj/bf8vIyNC+fftsZ97u3r0722XLlSuno0ePyjAMu/aTJ09q5cqVioiIMPduAAAAAAAAAAAAAKCAKnL1gytn22Z3D9zExETdc889Tp/bt2+fSpcubTujds+ePdkuW7t2bd1www167733dOHCBdv6L7zwgjp16qT77rvP3LsBAAAAAAAAAAAAgALK9+oHV86+dXbWrXS5INusWTOnzyUmJio4OFiSdOrUKR07dkxVqlRxumyRIkX02muv6cMPP1RUVJR8fHwUGBioPn36ZLt9AAAAAAAAAAAAALie+f67YcyYMdkuPGfOnGyf69atm7p16yZJuuGGGxQfH5/jCwcEBGjEiBGu9hMAAAAAAAAAAAAArmtF/t0QEBDgjX4AAAAAAAAAAAAAQKHmULwFAAAAAAAAAAAAAOQ/ircAAAAAAAAAAAAAYAEOxdvo6GgvdAMAAAAAAAAAAAAACjfOvAUAAAAAAAAAAAAAC6B4CwAAAAAAAAAAAAAWQPEWAAAAAAAAAAAAACyA4i0AAAAAAAAAAAAAWADFWwAAAAAAAAAAAACwAIq3AAAAAAAAAAAAAGABFG8BAAAAAAAAAAAAwAIo3gIAAAAAAAAAAACABVC8BQAAAAAAAAAAAAALoHgLAAAAAAAAAAAAABZA8RYAAAAAAAAAAAAALIDiLQAAAAAAAAAAAABYAMVbAAAAAAAAAAAAALAAH8MwjKsboqOjFR0d7aXuALgiJiZGUVFR3u4G/icmJkaHDx/Wyy+/7O2uANetsLAwrVq1Sh988IEGDBigli1bat26dd7uFgAAAExifgcAAHB9YX6XPzjzFgBcFB0dLcMwCtXPnDlzvN6HgvpDdu7/HD16VHv27JEk7dmzR0ePHvV6nwraD587siO7gvVDdmRHdgXrh+zc/2F+d+0/fO7IjuwK1g/ZkR3ZFawfsnP/h/ndtf+48rmjeAsAACyhevXqSkxMlCQlJiaqevXqXu4RAAAArgXzOwAAgOsL87v8QfEWAABYQnBwsN0394KDg73cIwAAAFwL5ncAAADXF+Z3+YPiLQAAsAQmfwAAANcX5ncAAADXF+Z3+YPiLQAAsITg4GC7y64w+QMAACjYmN8BAABcX5jf5Q+KtwAAwBKqV69u98097pkBAABQsLkzv0tOTtbx48fzq2sAAAAwgb/f5Q9fb3cAAAq61NRUDR06VH/88YdKlCihiIgIjR07VkWK8P0YwB1lypRRuXLl9Mcff6hcuXIqU6aMwzLVq1fXrbfeatfWqlUrvfDCC/nVTQAAALgot/nd0aNH9dFHH2n58uU6ePCgYmJi1LJly1y3+/XXX2vu3LlKT0/X+fPnNWXKFDVv3jyv3gYAAAD+x5W/3y1btkyzZs3S+fPnVaxYMd15552aMmWKbrrppmy3e/jwYbVo0UI33XSTfvjhh7x8CwVCnhVvBw0apC5duqhNmzZ59RIAYAkDBgxQ9+7d1aNHD0nSiy++qGnTpmnMmDFe7hlQ8FSvXl1JSUnZfmuvYsWKWrVqVT73CgAAAGblNL87fPiw7rnnHj399NOaMWNGrtsyDEODBg1SYGCgvvjiC6d/LAQAAEDeyml+d/DgQa1bt06LFi1S2bJlJUlbtmxRVFSUFi9enO02x44dqwULFvA39f/Js+Lt+++/rzlz5qhKlSqaOXNmjkXc+fPna9GiRfL1te9OdHS0brvtNvXr108JCQmSpNGjRyspKcnhjLbFixfLz89PycnJmj9/vnbu3CkfHx+VL19eXbt2VWhoqEv9vpb1t2zZouTkZPXs2dOl1wI8beDAgTpx4oR8fHwkSQ8++KAee+wxPfHEE0pNTbUtl56ertatW2vIkCHat2+fYmJilJqaqpIlS2rEiBGqVKmSt95CgbN3716lpKTYCrfS5X1X48aN9cwzzzjs1wDkLDg4WOvWrVNYWJi3uwIAAAAPyGl+V69ePdWrV8/lbU2fPl0NGzZU//79PdhDAAAAuCOn+V3lypU1bdo0u7YHHnhAFy9e1NmzZ51++W7Tpk0qXry47r///rzqcoGTZ1UFHx8fNWjQQImJiWrXrl2uRdyIiAiNHDnSof3YsWMObU8//bRatWrl0H7w4EGNGjVKvXv31ujRo1WiRAnt3r1b06ZN08mTJ9WtW7cc+3yt6+/du1eXLl3KcRkgr5w9e1anTp3SokWLVLRoUbvn5s2bZ/v3vn37NHnyZPXq1UupqamKjo7Wc889p1q1amnFihWaMWOGJk+enM+9L7g2bNjgsG/w9fVV3bp1tW/fPm7YDrgpODhYixYtynbspKSk6JFHHtHhw4d14cIF3XLLLZoxY4buvPPO/O0oAAAAXJLb/M5VGRkZ2rRpk7766isP9QwAAABmuDu/W7lypfbs2SN/f3+H57KysvTSSy/p888/93Q3C7Q8PSWsXLlyat68uU6cOOFyEfdafPbZZwoJCbErpNSoUUNjxozRuHHj1K5dO5UsWfKa1l+6dKlSUlI0ePBg2zpnzpxRaGioVq5cKenyNb8feughj78/ICeJiYny9/fX2LFjderUKd1///3q16+fihUrZlsmPT1dU6dOVVRUlAIDA7V27VpVrVpVtWrVknT5SxTcYNw9x48fV506dRza77rrLh08eJDiLeCm4OBgnTp1KtuxM3DgQLVo0UJVqlSRJG3dulV9+/bV2rVrHb64AgAAAO/LbX7nqq1bt6phw4b6888/NW7cOB05ckRBQUGaMmWKbrzxRg/1FgAAALlxdX7Xt29frV69WhkZGfr8888drqgrSXPnzlWnTp10yy235FV3C6R8uZ6nsyJu2bJllZKSYltm3bp12rx5s+1x06ZNNWLECKfbmzVrlmJiYmyPo6Ki1KpVKyUmJqpfv34OywcHB8vPz09//vmnrUjljCvrZyc4OFitWrXSpUuXKNzCK9LS0nTvvfeqf//+Klq0qCZPnqz58+crMjLStsy3336r8uXL2y4/cPjwYQUEBGjy5Mn6888/dcsttygqKspbb6FAyszMVIkSJRza/fz8dPHiRS/0CCjYqlevrosXL2b7RZInn3zS7vH999+v1q1bKyEhQZ06dcqPLgIAAMANuc3vXHXs2DGlpKRowIABmj17tqpXr67169erW7duWrVqFV/kAwAAyCeuzu/mz5+vM2fOaMmSJU6fT0lJ0SeffKI1a9bkRTcLNIfi7YEDB7Ru3TqXN2D2nnSGYThsx9llk50ZMmSI08smS8r2/pKZmZm2+4Dm5FrXB7wlJCREISEhtsc9e/bUO++8YyveZmVlaenSpRo7dqxtmf/H3t2HaVnXeeN/zzDIg4m6iuCYIT4ADlo3h5XH+IAgcrMyuBbeWiTZshiQGCKDK7l3OthB2SZSpiKjpgebGYq1lSG2tri7GVua+XDDACo+oKKIj6iIDFy/P1znxzjR12G0AAAgAElEQVSgw/Aw18DrdRzf4+A8r/P6Xp/rM2DfePM9z/r6+jzwwAOZNm1aevbsmXvuuSeXX355brzxxp1ef1u1xx57ZP369U3Ov/vuu553CzvJZz/72TzyyCPCWwCAXdjee++dH//4x3nkkUdy+OGHJ0lOOumknHzyybn77rszbNiwVq4QAIAP69KlS772ta/lkksuSc+ePdOzZ8+G1y677LJ8+9vf9vfom9F0j/IOsHr16vzXf/1XHnzwwXTv3j133313Xn/99e3+ORUVFXnooYeanK+rq0uhUGj0m6Kl7/9wgLu50AZawx//+McsWbKk4bhQKDT6j94jjzySDh06pG/fvg3n/uZv/iZHHHFEDj300JSUlGTIkCF5+eWX88Ybb+zU2tuygw8+OE8//XST888880y6deu28wuCNq6uri4dOnRIXV1ds9/z2muvWeQBABSplqzvNqdPnz456aSTGoLbD3zmM5/JE088sU1zAwDQfC1Z3/Xv3z9z585tdO7hhx/OtGnTMmDAgIbx8MMPZ8KECdu75Danyd90HnLIIS3eTfthH9wm+e23396hz7r9wNlnn50LL7wwBx54YKqqqtKhQ4csWrQoM2bMyIgRI9K5c+dtfv/ee++dP/3pT9m4cWPeeeed/PGPf0y/fv2SJO3atcvatWt32PeDj/Liiy/m17/+dS6//PKUlpbml7/8ZaOduI8++mgqKioavefYY4/NnDlz8vzzz+eggw7KwoUL061bt3Tp0mVnl99mHXfccRk/fnyjW7muX78+999/f6677rpWrAzapiVLlmSfffbJkiVLmqxHnnvuuXzyk59s8p67774748eP30kVAgCwNT5qfbc1ysvL89Zbb+XNN99s9P9Zly1bliOOOGI7VAoAQHO0ZH334IMPNtns9J//+Z9NrhswYECuvvrq7VFmm7bDtqkUCoU8+OCDOyW0/UB5eXlmzJiR2bNnZ9SoUamvr095eXlGjhyZgQMHbpf3DxgwIH/+858zatSodO3aNcccc0w2btyY5P1/7fmd73wn7777bi644IId+l3hw04//fSsXr06EyZMSH19fT772c/mzDPPbHj9ueeeaxLeHnDAAamurs4PfvCDrFu3Lp07d863vvUttwjfCj169Miee+6ZX/ziFxk+fHiSpKamJn//93+f9u3bt3J10PYsWbIk3bp1a3QngQ/85Cc/ycsvv5xp06Y1/IXdTTfdlLfffjvHHnvszi4VAIBm+Kj13daqrq7OmDFjcsstt6Rjx45ZunRpfvWrX3lOGgDATvRR67vJkyend+/ejf5+/Fe/+lXuvPPO/OEPf9jZpbZZOyy8HTduXL7whS80K7Q955xztvhat27dMm/evIbjK6+88iPnKi8vz5QpU5pf6Fa+v1OnTrnssss2+9pRRx2VOXPmtPizYVu0a9cuY8aM2eLr//RP/7TZ8/369WvYPU7L3Hjjjbnooosyc+bMrFmzJn/7t3+biy66qLXLgjZpyZIl+dSnPrXZxd+ll16a3/72tznzzDPz3nvv5fXXX8+AAQNy6623tkKlAAA0x0et7+65555873vfS5I8++yzue2227LvvvumrKwstbW1OfTQQxtdf/rpp2fNmjUZNGhQCoVCOnfunBtuuME/nAUA2Ik+an13+eWX55prrsn//t//OyUlJdmwYUOOPvro/P73v8+ee+65xTknT56cBx98MA8//HAuuOCC/OhHP9qRX6Ho7bDwdubMmTtq6hZbuHBhoyB4U5WVlRk6dOhOrgjYFey11165/vrrW7sM2CXU1dXlrLPOyu23377Z16uqqlJVVbWTqwIAoKU+an03ZMiQrb5T28iRIzNy5MjtVR4AAFvpo9Z3nTt3zj/+4z/mH//xH7dqzo/buLm72WHhbTGqrKxMZWVla5cBAGzGmjVrsnr16hxxxBFZvXp11qxZk7322qu1ywIAoIWs7wAAdi3WdztHaWsXAACQvP+v9vr06ZMk6dOnT+rq6lq5IgAAtoX1HQDArsX6bucQ3gIARWHJkiU58sgjkyRHHnnkZp+bAQBA22F9BwCwa7G+2zmEtwBAUViyZEmjf7ln8QcA0LZZ3wEA7Fqs73YO4S0AUBQs/gAAdi3WdwAAuxbru51DeAsAFIW6urpGt13xzAwAgLbN+g4AYNdifbdzlBQKhcKmJ2pqalJTU9NK5QAfqK2tzZgxY1q7DP5HbW1tXnjhhUydOrW1S4Fd1oABA3LvvffmpptuyujRo3PKKafkvvvua+2yAABoIes7AIBdi/XdzmHnLUAz1dTUpFAo7FZj1qxZrV5DWx16t/VjwYIFadeuXZKkXbt2WbBgQavX1NaG33d6p3dta+id3uld2xp6t/XD+m7bh993eqd3bWvond7pXdsaerf1w/pu20dzft8JbwEAAAAAAACKgPAWAAAAAAAAoAgIbwEAAAAAAACKgPAWAAAAAAAAoAgIbwEAAAAAAACKgPAWAAAAAAAAoAgIbwEAAAAAAACKgPAWAAAAAAAAoAiUFAqFwqYnampqUlNT00rlAB+ora3NmDFjWrsM/sfu+vPYXb/39tC7d+8sW7astcsAAAAAAKANsfMWAHaAZcuWpVAoGC0Ys2bNavUa2urQO73Tu7Y19E7v9K5tDb3TO71rW0Pv9E7v2tbQO73Tu7Y19G7H9k54CwAAAAAAAFAEhLcAAAAAAAAARUB4CwAAAAAAAFAEhLcAAAAAAAAARUB4CwAAAAAAAFAEhLcAAAAAAAAARUB4CwAAAAAAAFAEylq7gCSZPXt25syZk7KyxuXU1NSkvLw8o0aNyrx585IkkydPztKlS1Na2jh3njt3btq3b59nn302s2fPzmOPPZaSkpJ07949X/ziF3PSSSdtU40TJkzI008/nZKSkkbnzzvvvAwZMmSb5k6SlStX5qc//WkuuuiibZ4LAAAAAAAAaHuKIrxNkkGDBmXSpElNzr/00ktNzk2YMCGDBw9ucn7FihWprq7OiBEjMnny5HTs2DGLFy/O9OnT88orr2T48OHbVGN1dfU2h8Bb8uKLL+aFF17YIXMDAAAAAAAAxa9owtvt4bbbbkv//v0bhbQVFRW56KKLcskll+TUU09Np06dtvj+mpqadO/ePStXrswrr7ySww47LBdccEGTXb6bc+aZZ+bUU0/NU089lVdeeSWnnXZaFi1alFWrVmXjxo2ZOnVq9txzzwwfPjynnHJK3njjjaxevTpVVVXp379/rr/++qxevTpXXHFFjj322Nx1112ZPn16kuTll1/OhRdemFtuuaXJ7mQAAAAAAABg11A0SeB9992XhQsXNhwff/zxmThx4mavvfbaa1NbW9twPGbMmAwePDh1dXUZNWpUk+v79OmT9u3b58knn8xRRx31kXWsWbMmU6dOTX19fc4777w88sgj6devX5Lkhz/8Ya655ppG199www3ZZ599smHDhnTr1i3/8A//kH/7t3/Lddddl5/85CfZd999c/nll+c///M/c+qppyZJDjnkkAwdOjRr1qzJuHHjUlFRkXHjxmX27NmZMmVK6uvrc8MNN+SZZ55Jjx49Mn/+/JxyyimCWwAAAAAAANiFNUkDZ86cmV/84hfNnuDRRx/dLoUMGDBgs7dN3pzx48dv9rbJSbYYcNbX1zd5Xu3mfBDUlpWVpby8PGvWrGl4beLEiR952+TPf/7zSZL9998/Bx10UPbdd9+G403n+WCOvfbaK717984jjzySAw44oNF3GDJkSO65556ce+65uffee/P973//Y2sHAAAAAAAA2q6Pvx9wG1JRUZGHHnqoyfm6uroUCoX07NnzY+do3759o+NCodDsz980OG7OrZaTZP369Zu9dujQobnvvvvypz/9KT169Ej37t2bXQcAAAAAAADQ9jTZpvqNb3wjNTU1rVDKtjv77LNz4YUX5sADD0xVVVU6dOiQRYsWZcaMGRkxYkQ6d+7c2iUmSe65554MHz48K1asyJIlSzJx4sQ8//zzWb9+fcM1Xbt2zZFHHpna2tqMGzeuFasFAAAAAAAAdoZd6iGq5eXlmTFjRmbPnp1Ro0alvr4+5eXlGTlyZAYOHLjN81911VX50Y9+1OjcKaeckvPOO2+r5lm+fHm++c1vpr6+PtXV1dlvv/3Svn37rFu3Ll//+tdzww03JEkGDx6cmTNn5nOf+9w21w4AAAAAAAAUt6IIb88555wtvtatW7fMmzev4fjKK6/8yLnKy8szZcqUFtXx4R3Hmx5fffXVH/neTZ8T3K9fv4Zn5yZpEu6OHj264Xm4H+jSpUtDaJu8f7vmv/zlLxk2bFizb8EMAAAAAAAAtF1FEd7uLAsXLmwUBG+qsrIyQ4cO3ckVbd7atWtzzjnnpG/fvvn617/e2uUAAAAAAAAAO8FuFd5WVlamsrKyVWvYdIfulnTq1Cl33HHHTqgGAAAAAAAAKBbuxwsAAAAAAABQBIS3AAAAAAAAAEVAeAsAAAAAAABQBIS3AAAAAAAAAEVAeAsAAAAAAABQBMpauwCAtqKkpKS1S2gVY8eObe0S2qRevXq1dgkAAAAAALQxwluAZioUCq1dwk5XW1ubMWPGtHYZbVJtbW1rlwAAAAAAQBvjtskAAAAAAAAARUB4CwAAAAAAAFAEhLcAAAAAAAAARUB4CwAAAAAAAFAEhLcAAAAAAAAARUB4CwAAAAAAAFAEhLcAAAAAAAAARUB4CwAAAAAAAFAESgqFQmHTEzU1NampqWmlcoAP1NbWZsyYMa1dBv+jtrY2Y8eObe0yAAAAAACAXZidtwDNVCgUdrsxa9asVq+hrQ690zu9a1tD7/RO79rW0Du907u2NfRO7/SubQ290zu9a1tD7/RO79rWaE7vhLcAAAAAAAAARUB4CwAAAAAAAFAEhLcAAAAAAAAARUB4CwAAAAAAAFAEhLcAAAAAAAAARUB4CwAAAAAAAFAEhLcAAAAAAAAARaCstQtIktmzZ2fOnDkpK2tcTk1NTcrLyzNq1KjMmzcvSTJ58uQsXbo0paWNc+e5c+emffv2efbZZzN79uw89thjKSkpSffu3fPFL34xJ5100jbV+HGfuyXDhg3Lz372s/z2t7/Na6+9lvPOO2+b6gAAAAAAAAB2TUUR3ibJoEGDMmnSpCbnX3rppSbnJkyYkMGDBzc5v2LFilRXV2fEiBGZPHlyOnbsmMWLF2f69Ol55ZVXMnz48G2qcUufCwAAAAAAALCtdqnbJt92223p379/hg8fno4dOyZJKioqctFFF+WnP/1p1q5d+5Hvr6mpyfXXX5/LLrss559/fmbMmJGNGzd+7Odecskl+cMf/tDoeOHChdv2ZQAAAAAAAIDdStHsvL3vvvsaBZ7HH398Jk6cuNlrr7322tTW1jYcjxkzJoMHD05dXV1GjRrV5Po+ffqkffv2efLJJ3PUUUd9ZB1r1qzJ1KlTU19fn/POOy+PPPJI+vXr95GfCwAAAAAAALCtmoS3N998c37/+983e4L/+q//2i6FDBgwYLO3Td6c8ePHbzE0/fBzcz9QX1+fkpKSj537g6C2rKws5eXlWbNmTbM+FwAAAAAAAGBb7FK3Ta6oqMhDDz3U5HxdXV0KhUJ69uz5sXO0b9++0XGhUPjY95SUlDS6bv369c2oFgAAAAAAAOD/12Sb6qhRo1JTU9MKpWy7s88+OxdeeGEOPPDAVFVVpUOHDlm0aFFmzJiRESNGpHPnzjvkc/fee+8sW7YsJ554YpYvX54nnnhih3wOAAAAAAAAsOsqmmfebg/l5eWZMWNGZs+enVGjRqW+vj7l5eUZOXJkBg4cuMM+90tf+lKmT5+ec889Nz179my49TIAAAAAAABAcxVFeHvOOeds8bVu3bpl3rx5DcdXXnnlR85VXl6eKVOmtKiOD+843vT4oz63R48eufrqqzf72l133ZUkGTFiRItqAgAAAAAAAHYPRRHe7iwLFy5sFARvqrKyMkOHDt3JFQEAAAAAAAC8b7cKbysrK1NZWdnaZQAAAAAAAAA0UdraBQAAAAAAAAAgvAUAAAAAAAAoCsJbAAAAAAAAgCIgvAUAAAAAAAAoAsJbAAAAAAAAgCIgvAUAAAAAAAAoAsJbAAAAAAAAgCIgvAUAAAAAAAAoAsJbAAAAAAAAgCIgvAUAAAAAAAAoAsJbAAAAAAAAgCIgvAUAAAAAAAAoAsJbAAAAAAAAgCIgvAUAAAAAAAAoAsJbAAAAAAAAgCIgvAUAisr06dNTUlJitGBMnz69tX98AABNWN9Z3wEAuxbrux27vivbCT9DAIBmW7ZsWQqFQmuX0SaVlJS0dgkAAE1Y37Wc9R0AUIys71quOes7O28BAAAAAAAAioDwFgAAAAAAAKAICG8BAAAAAAAAioDwFgAAAAAAAKAICG8BAAAAAAAAioDwFgAAAAAAAKAICG8BAAAAAAAAikBZaxeQJLNnz86cOXNSVta4nJqampSXl2fUqFGZN29ekmTy5MlZunRpSksb585z585N+/bt8+yzz2b27Nl57LHHUlJSku7du+eLX/xiTjrppI+s4bHHHsvll1+eW2+9NXvssUfD+fXr1+erX/1qpk2blsMOO2yz7x02bFh+9rOf5aWXXsoVV1yRm266qck1l1xySU477bRUVlY2qycAAAAAAADA7qUowtskGTRoUCZNmtTk/EsvvdTk3IQJEzJ48OAm51esWJHq6uqMGDEikydPTseOHbN48eJMnz49r7zySoYPH77Fzz/66KOz//775/7778/AgQMbzt9///056KCDthjcbqpHjx6ZNm3ax14HAAAAAAAA8GFFE95uD7fddlv69+/fKKStqKjIRRddlEsuuSSnnnpqOnXqtMX3V1VV5Xe/+12j8Hb+/Pk57bTT8vTTT+f666/PunXr8uqrr6Z37965+OKL065du4Zrn3nmmYadtytXrsyMGTOyZs2adOvWLW+++eaO+dIAAAAAAADALqFowtv77rsvCxcubDg+/vjjM3HixM1ee+2116a2trbheMyYMRk8eHDq6uoyatSoJtf36dMn7du3z5NPPpmjjjpqizUMGjQot9xyS1588cV07949L7zwQlasWJETTjghM2fOzNChQ9O/f//U19dn3Lhxefjhh3PMMcdsdq6rrroqJ5xwQk4//fQ888wzmTBhQnNbAQAAAAAAAOyGmoS3c+bMySOPPNLsCX75y19ul0IGDBiw2dsmb8748eM3e9vkJE2em/uB+vr6lJSUfOS8nTp1ysknn5x/+7d/y1e/+tXcfffdGTJkSMrKyjJ+/Pj89a9/zZ133pkXXngha9asybvvvrvZed59990sWrQoNTU1Sd6/nfJHhcYAAAAAAAAApa1dwPZUUVGRhx56qMn5urq6FAqF9OzZ82PnqKqqyr333pv33nsvCxYsyNChQ5MkU6dOzbx587LffvulqqoqPXr0SKFQaHZtm95eGQAAAAAAAODDmmxT/dKXvtSwY7StOfvss3PhhRfmwAMPTFVVVTp06JBFixZlxowZGTFiRDp37vyxc/To0SPdu3fPLbfckiOPPDL7779/NmzYkL/85S+ZOXNmDj744Dz//PN58skns3Hjxs3O0bFjx3z605/O3Xffnf/zf/5PVq5cmUWLFuXUU0/d3l8ZAAAAAAAA2EUUzTNvt4fy8vLMmDEjs2fPzqhRo1JfX5/y8vKMHDkyAwcObPY8w4YNyxVXXJHvfe97Sd7fNfu1r30tU6dOTZcuXbLHHnukb9++ef7557c4R3V1dX74wx/m3nvvTdeuXZu16xcAAAAAAADYfRVFeHvOOeds8bVu3bpl3rx5DcdXXnnlR85VXl6eKVOmbFM9J554Yk488cRG584888yceeaZm73+rrvuSpJ06dIlN910U5Kka9eumTZt2jbVAQAAAAAAAOw+iiK83VkWLlzYKAjeVGVlZcPzbQEAAAAAAAB2tt0qvK2srExlZWVrlwEAAAAAAADQRGlrFwAAAAAAAACA8BYAAAAAAACgKAhvAQAAAAAAAIqA8BYAAAAAAACgCAhvAQAAAAAAAIpASaFQKGx6oqamJjU1Na1UDvCB2trajBkzprXL4H/U1tZm7NixrV0G7BZ69eqVpUuXtnYZbVLv3r2zbNmy1i4DAKAR67uWs74DAIqR9V3LNWd9Z+ctQDMVCoXdbsyaNavVa2irQ+9aPqqrq1v7j3ubVV1d3eo/v7Y6/JnVO71rW0Pv9E7v2tawvms567uWD39m9U7v2tbQO73Tu7Y1rO9arjnrO+EtAAAAAAAAQBEQ3gIAAAAAAAAUAeEtAAAAAAAAQBEQ3gIAAAAAAAAUAeEtAAAAAAAAQBEQ3gIAAAAAAAAUAeEtAAAAAAAAQBEQ3gIAAAAAAAAUAeEtAOwA06dPT0lJidGCMX369Nb+8QEANGF9Z30HAOxarO+s74pVWWsXAAC7omXLlqVQKLR2GW1SSUlJa5cAANCE9V3LWd8BAMXI+q7lrO92LDtvAQAAAAAAAIqA8BYAAAAAAACgCAhvAQAAAAAAAIqA8BYAAAAAAACgCAhvAQAAAAAAAIqA8BYAAAAAAACgCAhvAQAAAAAAAIpAWWsXkCSzZ8/OnDlzUlbWuJyampqUl5dn1KhRmTdvXpJk8uTJWbp0aUpLG+fOc+fOTfv27fPss89m9uzZeeyxx1JSUpLu3bvni1/8Yk466aSPreO6667LvHnz0q5du5SUlKS0tDR9+/bN+eefn27dum2/LwwAAAAAAADwIUUR3ibJoEGDMmnSpCbnX3rppSbnJkyYkMGDBzc5v2LFilRXV2fEiBGZPHlyOnbsmMWLF2f69Ol55ZVXMnz48I+t47TTTsvYsWOTJPX19bnuuuvygx/8IFdeeWULvhUAAAAAAABA8xRNeLs93Hbbbenfv3+jkLaioiIXXXRRLrnkkpx66qnp1KlTs+crKyvL4MGD8+1vfztJ8sorr+Taa6/NypUrkyQDBw7MWWedlSQZPnx4TjnllLzxxhtZvXp1qqqqcvLJJ2/HbwcAAAAAAADsyoomvL3vvvuycOHChuPjjz8+EydO3Oy11157bWpraxuOx4wZk8GDB6euri6jRo1qcn2fPn3Svn37PPnkkznqqKOaXdPbb7+d+fPnp2/fvkmSq666Kp/+9Kdz6aWX5p133snFF1+c/fbbL4MGDUqSHHLIIRk6dGjWrFmTcePGpaKiIt27d2/25wEAAAAAAAC7rybh7bx587J69epmT3DNNddsl0IGDBiw2dsmb8748eM3e9vkJE2em/uB+vr6lJSUfOzcv/3tb3PvvfcmSdq1a5eKioqcf/75qa+vz6OPPpr/+3//b5Kkc+fOGTx4cP785z83hLcfPFd3r732Su/evfPII48IbwEAAAAAAIBmaZJ0fv7zn2+NOraLioqKPPTQQznuuOMana+rq0uhUEjPnj0/do6qqqqGZ95uav369SkUCo3OFQqFbNiwYbPzrF+/PqWlpVtRPQAAAAAAALA7axLebq+dtK3h7LPPzoUXXpgDDzwwVVVV6dChQxYtWpQZM2ZkxIgR6dy5c4vnbt++fY4++uj85je/yVlnnZW1a9fm97//fYYMGdJwzT333JPhw4dnxYoVWbJkyRZv+wwAAAAAAADwYUXzzNvtoby8PDNmzMjs2bMzatSo1NfXp7y8PCNHjszAgQO3ef5Jkybluuuuyze+8Y3U19enf//+GTp0aMPry5cvzze/+c3U19enuro6++233zZ/JgAAAAAAALB7KIrw9pxzztnia926dcu8efMajq+88sqPnKu8vDxTpkxpUR3nnXfeR77etWvXXHbZZVt8ffTo0dl3331b9NkAAAAAAADA7q0owtudZeHChY2C4E1VVlY22kULAAAAAAAAsDPtVuFtZWVlKisrd8jcv/jFL3bIvAAAAAAAAMDuobS1CwAAAAAAAABAeAsAAAAAAABQFIS3AAAAAAAAAEVAeAsAAAAAAABQBIS3AAAAAAAAAEWgpFAoFFq7CKCp2trajBkzprXL4H/U1tZm7NixrV0GbUivXr2ydOnS1i6jTerdu3eWLVvW2mUAADRifddy1ncAQDGyvms567sdy85bgGYqFAq73Zg1a1ar19BWR3V1dWv/lm2zqqurW/3n11aHP7N6p3dta+id3uld2xrWdy1nfdfy4c+s3uld2xp6p3d617aG9V3LWd+1fDTnz6zwFgAAAAAAAKAICG8BAAAAAAAAioDwFgAAAAAAAKAICG8BAAAAAAAAioDwFgAAAAAAAKAICG8BAAAAAAAAioDwFgAAAAAAAKAICG8BAAAAAAAAikBZaxcA0FaUlJS0dgmtYuzYsa1dQpuldy2ndy3Tq1evjBkzprXLAIBd0vTp061RtoHetYz1HQDsONZ320bvWqY56zvhLUAzFQqF1i5hp6utrfUXBS2kdy2ndy23u/4jEwDYGZYtW7Zb/n+C7cH6ruWs7wBgx7G+aznru5ZrzvrObZMBAAAAAAAAioDwFgAAAAAAAKAICG8BAAAAAAAAioDwFgAAAAAAAKAICG8BAAAAAAAAioDwFgAAAAAAAKAICG8BAAAAAAAAioDwFgAAAAAAAKAICG8BAAAAAAAAioDwFgAAAAAAAKAICG8BAAAAAAAAioDwFgAAAAAAAKAICG8BAAAAAAAAioDwFgAAAAAAAKAICG8BAAAAAAAAioDwFgAAAAAAAKAIlLV2Ac0xa9aszJ8/P506dUqSFAqFtG/fPkOGDMnZZ5+93T7nkksuyWmnnZbKysrtNicAAAAAAABAc7SJ8DZJBg8enPPOO6/heMWKFZkwYUI++9nPpnfv3q1YGQAAAAAAAMC226rwtqamJp/4xCfyzjvv5K233kqvXr0yevTolJSU5A9/+EPuvPPObNiwIW+88Uaqqqpy1lln5b8O3f8AACAASURBVPbbb8/ixYvz9NNP54gjjsjIkSNz9dVXZ/369SkUCvm7v/u7DB48OBs3bsy//Mu/5IEHHkiSfOpTn8o3vvGN7LXXXk3qKBQKee2117Jhw4aG3bhPPvlkamtr884776SkpCRnnXVWTjjhhLz99tv58Y9/nJdeeilvvvlmunTpkilTpqRbt25ZuXJlZsyYkTVr1qRbt2558803kyQLFizIXXfdlenTpydJXn755Vx44YW55ZZbUlbWZvJuAAAAAAAAoA3Z6iRyw4YNufTSS1MoFPJP//RPWbBgQfr3758777wzF198cbp3756XXnopo0ePzumnn54kefbZZzNz5syUlZXl6quvzoABA3Laaadl1apVmT17dgYPHpzf/OY3Wb16da6++uqUlpZm7ty5mTVrViZPnpwkmT9/fhYsWJD169dnw4YN6du3b6ZMmZJPfepTWbduXaZNm5bLLrssPXr0yJtvvpmJEyfmkEMOSV1dXf7mb/4mU6ZMSZJcddVVufvuu/P3f//3ueqqq3LCCSfk9NNPzzPPPJMJEyYkSU488cTccMMNeeaZZ9KjR4/Mnz8/p5xyiuAWAAAAAAAA2GG2Oo086aSTkiQlJSX53Oc+l4ceeignn3xyvvvd7+aBBx7IggULsmLFimzcuDHr1q1LklRUVDTskD3uuOPywx/+MP/v//2/fOYzn8mYMWOSJH/+85/zwgsvNASoGzZsyB577NHwuX/7t3+b8847L2vXrs2VV16ZkpKSHHvssUmS5cuX59VXX80PfvCDhus3btyY5cuXZ/DgwXniiSdy1113ZeXKlVmyZEn69euXd999N4sWLUpNTU2SpEePHjnqqKPeb0pZWYYMGZJ77rkn5557bu699958//vf39pWAQAAAAAAADTbVoe3hUKh4df19fUpLS3NmjVr8s1vfjMnnHBC+vbtm4EDB+Y//uM/Gq7r3Llzw68rKytTUVGRhx56KH/9619z6623ZubMmdm4cWO+/OUvZ8iQIUmSdevWZe3atU0+v1OnTpk8eXLGjRuX22+/PSNGjMiGDRvSpUuXXHPNNQ3Xvfrqq+nSpUvmzp2bBQsWZNiwYTnuuONSVla22XmTpF27dg2/Hjp0aC644IIcffTR6dGjR7p37761rQIAAAAAAABottKtfcO9996bjRs35p133sm///u/59hjj81TTz2VDRs25B/+4R9SWVmZJUuWpFAoZOPGjU3e/93vfjd/+tOfMnDgwJx//vkpLS3NqlWrcswxx+S3v/1tQ7B64403ZtasWZutoVOnThk3blzmzJmTF198MYcddljq6+uzYMGCJMkLL7yQsWPHZuXKlXnggQdSVVWVU089NYceemj++te/ZuPGjenYsWM+/elP5+67706SrFy5MosWLWr4jK5du+bII49MbW1tqqqqtrZNAAAAAAAAAFulRQ9xnThxYt55550MGjQoxx9/fOrr69O3b9+MHz8+HTp0yEEHHZTy8vI8//zzTd77la98JVdffXV+/etfp6SkJIMHD87hhx+eQw45JG+88UYmTpyYkpKSfPKTn8wFF1ywxRoqKytz9NFHZ+bMmZk6dWouvfTS3HDDDbnjjjtSKBQyfvz4HHzwwTnrrLNSW1ub3//+96mvr89hhx2WF154IUlSXV2dH/7wh7n33nvTtWvX9OzZs9FnDB48ODNnzsznPve5lrQJAAAAAAAAoNm2Orzt379/w3NvGyYpK8uUKVM2e33fvn0bHR9yyCG56qqrmhZSVpbRo0dn9OjRTV4bO3bsZuf+zne+0/DrPn36ZPr06U2uOeaYY7a4g7dr166ZNm3aZl8rFAr5y1/+kmHDhqW0dKs3KAMAAAAAAABsFankZqxduzZnnXVWXn755Zx++umtXQ4AAAAAAACwG9iqnbc1NTU7qIzi0qlTp9xxxx2tXQYAAAAAAACwG7HzFgAAAAAAAKAICG8BAAAAAAAAioDwFgAAAAAAAKAICG8BAAAAAAAAioDwFgAAAAAAAKAICG8BAAAAAAAAioDwFgAAAAAAAKAICG8BAAAAAAAAioDwFgAAAAAAAKAICG8BAAAAAAAAioDwFgAAAAAAAKAICG8BAAAAAAAAioDwFgAAAAAAAKAIlLV2AQAAbB+9evVKSUlJa5fRZo0dO7a1S2iz9K7l9K7l9K7l9K5levXq1dolsBuyvts2/nvXcnrXcnrXcnrXcnrXMtZ3tIbmrO/svAUA2EVUV1enUCgYLRizZs1q9Rra6tA7vdO7tjX0ruWjurq6tf+nnt2Q9V3Lh//e6Z3eta2hd3rXGsP6jtbQnPWd8BYAAAAAAACgCAhvAQAAAAAAAIqA8BYAAAAAAACgCAhvAQAAAAAAAIqA8BYAAAAAAACgCAhvAQAAAAAAAIqA8BYAAAAAAACgCAhvAQAAAAAAAIqA8BYAAAAAAACgCAhvAQAAAAAAAIqA8BYAAAAAAACgCAhvAQAAAAAAAIqA8BYAAAAAAACgCAhvAQAAAAAAAIpA2U9/+tOPvWjkyJE7oRQAAAAAAACA3VfZGWecka9+9at55513mrzYuXPn/Mu//Eujcw8++GCmTp2aPffcM4VCIaWlpTnuuOMyduzY7LHHHnn22WdTXV2d22+/PSUlJQ3vW7FiRS666KJcf/31+cUvfpFf//rX6dixY8PnnHHGGamqqtpskS+//HJqa2vz5JNP5u233063bt0ycuTIfP7zn0+S1NXVZdasWXnvvffSvn37jB8/Pr169drqeS677LIMHDgwAwYMaFEzt+TRRx/NDTfckB//+MfbdV4AAAAAAABg11HaqVOnfOELX9jsi1/4whfSqVOnRucWL16cE088MT//+c8zZ86czJo1K6tWrcrNN9+cJDn44IOzcePGPPfcc43eN2vWrHzpS1/KPvvsk8WLF2fChAn5+c9/np///OeZOnVqrr/++rz77rubreOaa65J165dU1tbm5///Of52te+lu9973t58cUX895772Xq1KkZPXp0rrvuuowYMSL//M//vNXzJMn555+f448/fqsa2ByLFy/OkUceud3nBQAAAAAAAHYdZUlyxhln5F//9V8b7b79YDfshy1ZsiSVlZUNx126dMlXvvKVfOc738nYsWNTUlKSww8/PI8//ngOPvjgJMkf//jHvPzyy/m7v/u71NfX54knnsj/+l//K0lSX1+fxx9/PAcddFA6dOiw2SLfe++97LnnnikrK0uSHHPMMZk0aVLKysqyfv36jB8/PkcffXSSpLy8PG+99dZWz/P444/n+9//fm688cYsX7481113XdauXZtu3bpl3333Tc+ePTNs2LCMHDkyZ555Zp566qksXbo0w4YNS1VVVTZu3JhbbrklDzzwQEpLS7P33ntn4sSJOeCAA7JkyZKcdNJJSZI77rgjCxYsSPv27dOtW7dMmjSpYQcyAAAAAAAAsPsqTZLN7b7d3K7bQqGQpUuXNtlFutdee+X111/Phg0bkiS9evXK0qVLk7wfmN54440ZN25c2rVrlyeeeCL19fU5//zz85WvfCVf+MIX8pOf/CQ1NTWNbrO8qfPPPz9/+tOfMmHChNxzzz1Zt25dTjzxxOy///7Zc889c+KJJyZJ1q5dmx/96Ec588wzt3qepUuXpnfv3nn99ddz2WWXZdSoUbn22mszYMCA3H333amoqMiqVavy6quvZq+99srEiRPz9a9/Pb/73e+SJP/93/+dl156KT/+8Y9z7bXX5pOf/GTmz5+f5P3A+8gjj8zbb7+d22+/PVdffXV+9KMfZe+9987ChQub/9MCAAAAAAAAdlmlH/zijDPOSOfOnZNsedftU089lUKhkJ49ezY6/8wzz+SAAw5Iu3btkrwf3i5btixJMnfu3Bx66KHp169fkvefTztgwID87Gc/y89+9rP867/+a0466aRce+21WyzyoIMOytVXX50xY8bkoYceyrnnnptnnnmmSW2TJk3KiSeeuNnaP26eJUuWpHfv3pk/f34+85nPpG/fvkmSz3zmM+ncuXN69uyZJUuWpFevXjn55JOTJCtXrky3bt2SJH379s2nP/3p3Hrrrbnhhhvy8MMPZ5999slzzz2X0tLSdO/ePXvuuWeOPvroTJgwIb/73e8yduzYDBw4cIvfGwAAAAAAANh9NIS3m+6+3dyu2+T94LVXr14NIW3y/m7cOXPm5LTTTms4d8QRR+Spp57KqlWr8qtf/Spf//rXG15bvHhxDj/88IbjsrKyVFRU5Lnnnsubb76ZoUOHNoznnnsu11xzTZYvX54kOeqoo/Ktb30r/fv3zx133NEwx7//+7/nu9/9biZMmLDF5/d+3DxLlixJnz59snLlyhx22GEN73v88cfTu3fvlJSUZOnSpfnc5z7X8NoH73nvvfdy4YUXZuPGjRkwYEC+/OUv56233krv3r1TV1fXsFN51apV+fa3v53zzz8/f/jDH3LxxRdv+ScDAAAAAAAA7FZKNz34YPftlnaubhpEFgqFvPDCC7niiivSsWPHnH766Q3Xde/ePR07dsz06dNz2mmnNexOTd4PPDcNb1etWpW5c+emf//+6dKlS+bNm9cwPvnJT+add97J3LlzG57H+9prr6Wuri4HHnhgkuT+++/PnDlz8oMf/KDJ7Zw39VHzrFmzJqtXr86hhx6agw8+OI8++miS5M0338zNN9+cioqKhtr79OnT6LsceeSReemll/Luu+9m6NCh6dGjR37961/nzTffzGGHHdaoZ9XV1Xn44YdTUVGRb37zm3n88cezfv36j/wBAQAAAAAAALuHsk0PPth9u7ldt8n7YeXChQtz9913Z+3atenatWsGDhyY6urqlJU1mipHHHFEnn322XznO99pOLdq1aq88sorufzyy1NaWpqNGzemtLQ0gwYNyle/+tXNfuY3vvGN3HjjjRk7dmzq6+vTqVOnDBw4MF/+8peTJDfffHNeeeWVjBs3ruE9//zP/5xPfepTzZ7n4YcfzqGHHpqysrIMGzYsdXV1Offcc3PIIYfk7bffzlFHHZX6+vosX768Ibx96623smrVqhx++OEpKyvLsccem/Hjx2efffbJIYcckvbt26ddu3apq6vLoEGDkiSTJk3KzTffnJ/+9KcpKSnJxIkT0759+2b9oAAAAAAAAIBdW9mHT4wcOXKLF994443NnnjT0PYDBxxwQObNm9fsOZJkr732yoUXXrjNNX3UPMccc0yOOeaYJMkdd9yRcePGpWvXrnnqqady6aWXpm/fvikrK8svf/nLhvd84hOfyK9+9auG4wsuuKDRnB+EyTNnzmw4169fv4Zn/wIAAAAAAABsqkl4u7vr3LlzLr300pSWlqasrCzf+ta3muwqBgAAAAAAANjepJIfcsYZZ2zxmb8AAAAAAAAAO0rph0/cd999rVAGAAAAAAAAwO5NeAsAAAAAAABQBJqEtwAAAAAAAADsfMJbAAAAAAAAgCIgvAUAAAAAAAAoAsJbAAAAAAAAgCIgvAUAAAAAAAAoAsJbAAAAAAAAgCIgvAUAAAAAAAAoAsJbAAAAAAAAgCIgvAUAAAAAAAAoAsJbAAAAAAAAgCJQUigUCpueqKmpSU1NTSuVA3ygtrY2Y8aMae0y+B+7689jd/3e24PetVzv3r2zbNmy1i4DAAAAAGCns/MWACgqy5YtS6FQMFowZs2a1eo1tNWhd3qnd21r6J3e6V3bGnqnd3rXtobe6Z3eta2hd3qnd21rNKd3wlsAAAAAAACAIiC8BQAAAAAAACgCwlsAAAAAAACAIiC8BQAAAAAAACgCwlsAAAAAAACAIlD04e3w4cOzevXqJudnz56dv/71r3nsscdy5pln5r333mv0+vr16/PlL385Tz755BbnHjZsWN588808/vjjGT169Gavue222zJr1qwkyVVXXZVbb711G74NAAAAAAAAwOYVfXi7JY8++mg2btyYo48+Ovvvv3/uv//+Rq/ff//9Oeigg3LYYYd97Fw9evTItGnTdlSpAAAAAAAAAB+rrLULSJKampp84hOfyDvvvJO33norvXr1yujRo1NSUtJwzeuvv55LLrkkQ4YMSbt27fLUU0+ltrY248aNS1VVVX73u99l4MCBDdfPnz8/p512Wp5++ulcf/31WbduXV599dX07t07F198cdq1a9dw7TPPPJMrrrgiN910U9atW5drrrkmdXV12XvvvdOlS5d07969Sc133nlnli1blvfeey9vvfVW2rVrl4suuij77bffjm0WAAAAAAAAsEsqmp23GzZsyKWXXprvf//7Wb58eRYsWNDw2muvvZZLLrkkZ5xxRk4//fQMGzYsPXv2zJgxY9KvX78MGjQojz/+eF588cUkyQsvvJAVK1bkhBNOyG9+85sMHTo0M2bMyE033ZTly5fn4Ycf3mIdc+bMybvvvpsbbrghl19+eVauXLnFa5988sl861v/X3t3H6VlXecP/D3MgCmKkghkaqkJBvTAJEEoQuhICC17hiA9SwWZPOiaJEuZ7I+GY2Ud8CEwkVFPLbsdN0LFjaOnMHCjLc+Cw2qtGiWQJEpiJOjEw8zcvz/MWUYeBATve+T1Oud7uK+H73V97s8w/9zv+V73VzNz5sx06dIlixcvPnQNAQAAAAAAAI4ou628feSRRzJo0KD9mvz3f//3mTx58iEpZODAgUmSsrKy9OnTJ3V1dRk8eHCSZMaMGenYsWPz9usdffTRGTx4cJYsWZLPfOYzefDBBzNkyJBUVFTkyiuvzKpVq3LPPfdkw4YN2bp1a7Zt27bXOurq6nLJJZekrKws7du3z6BBg/LSSy/t8dyePXumXbt2SZLTTjttn0EvAAAAAAAAwL7sFt7269cvNTU1b3khhUKh+XVDQ0PatPm/RcGTJk3Kfffdl4ULF2bUqFF7nD9s2LBMnz49n/70p7Ns2bLccsstSV4NfisqKjJgwID07t0769evb3GvN6qlomLvT5Z+/bE3ui4AAAAAAADA3pTMY5MfeuihNDU1pb6+PkuXLk3fvn2bj3Xv3j3XXHNNFixYkDVr1iRJysvLs2PHjuZz3vOe96Rr1675/ve/n/e///3p1KlTGhsb8+ijj2bs2LEZNGhQjjrqqDz99NNpamraax19+vTJkiVL0tjYmO3bt2f58uWH700DAAAAAAAA/M3el5UWweTJk1NfX58LLrgg5557botjJ598csaMGZOZM2dm9uzZ6du3b2bNmpWJEyemqqoqSTJ8+PB861vfyg033JDk1YD3c5/7XGbMmJEOHTqkXbt26dmzZ5599tm91jB69OjcfvvtmTBhQo477ri8+93vPnxvGAAAAAAAAOBvSia8Pf/885u/93ZX9957b/PrESNGZMSIEUmS6urqVFdXtzh3wIABGTBgQIt9o0aN2uujlhcvXpwk6dChQ+66664kSdu2bXPVVVft8fxrrrmm+fXIkSNbHHv9NgAAAAAAAMCBKJnHJgMAAAAAAAAcyUpi5W1NTU2xSwAAAAAAAAAoKitvAQAAAAAAAEqA8BYAAAAAAACgBJTEY5MBWoOysrJil1AUEyZMKHYJrZbeHZxu3boVuwQAAAAAgKIQ3gLsp0KhUOwS3nK1tbUZP358sctolfTu4NXW1ha7BAAAAACAovDYZAAAAAAAAIASILwFAAAAAAAAKAHCWwAAAAAAAIASILwFAAAAAAAAKAHCWwAAAAAAAIASILwFAAAAAAAAKAHCWwAAAAAAAIASILwFAAAAAAAAKAFlhUKhsOuOmpqa1NTUFKkc4DW1tbUZP358scvgb2pra7Nhw4bMmDGj2KUAAAAAAHCQBg0alJ/+9Kf53ve+l3HjxuWiiy7Kww8/XOyyWgW9e2tYeQuwn2pqalIoFI6oMW/evKLX0FqH3umd3rWuoXd6p3eta+id3uld6xp6p3d617qG3umd3rWuoXcHPrZs2ZK6urokSV1dXbZs2VL0mlrL0Ls3P/bnd1Z4CwAAAAAAwBGhsrKyRQBZWVlZ5IpaD717awhvAQAAAAAAOCIcSAD5zDPP5IUXXnirSit5wtu3hvAW4E165ZVXMm7cuJx33nm58MILc8MNN6SpqanYZQEAAAAA8DpvFEA+//zzueGGGzJw4MAMGjQojz32WDHKLEn7E976vPzNO2zh7erVqw/XpQFKymWXXZaLL744v/jFL/LQQw/llVdeyY033ljssgAAAAAAeJ3XAsgdO3bsMYDcsGFDzjrrrDzwwAMZP358kaosTW/Uu8Tn5YfCYQtve/XqlbPOOis/+clPDtctAIpu9erV2bx5c0aNGtW8r6amJgsWLEhDQ0MRKwMAAAAA4PXatm2bysrKrFixIpWVlWnbtm2L45WVlfnUpz6V9u3bF6nC0vVGvfN5+aFx2MLbhoaGPP/88xk6dOibCnGrq6uzadOm3fbPnz8/q1atSpLcdNNNGT58eEaMGJERI0bk0ksvzdy5c9PY2Jjk1f8YS5cu3W1e8urzyr/+9a/n05/+dC655JJMnjw5//mf/7lftT3yyCNZsGDBQb0vOBx+9KMfZfz48fnCF76QH/zgBykUCsUu6W1v+fLlqa6ubrGvoqIivXv3zu9///siVQUAAAAAwN5UVlbmySef9J2tB2FfvfN5+aFxWL/zdsCAATnnnHMOSYj7eo8//niLZ2SPHj06999/f+6///7MmTMnK1asaA5h//Ef/zH9+vXbbd769eszZcqU9OjRI//yL/+Sf//3f8/48eMzf/783HvvvW9Yw+rVq/PKK68ckvcDb9bKlSvzi1/8IrNnz87cuXPzxBNP5Oc//3mxy3rbe+GFF/Ke97xnt/2nn3561q9fX4SKAAAAAADYl8rKyjzzzDPC24Owr975vPzQqDjcN+jUqVMGDBiQTZs25cknn8zQoUNz5pln5tprr81ll12W5NWVsccee2zq6+vz8ssvp1u3brnssstSVlbWfJ2//OUvue666zJkyJCUl5dn7dq1qa2tzcSJE/d43zZt2qRTp05JkltvvTXnn39+6uvrW8xbsmRJzj///BZ/BdCjR49MnTo11113XYYOHZpFixZl8+bNueKKK5Ikd999d7Zs2ZKBAwdmyZIlSZLjjjsun/rUpw5L/2B//epXv8rAgQPzjne8I0ly4YUXZtmyZRk4cGCRK3t7a2hoaO75rtq2bZvt27cXoSIAAAAAAPalsrIymzdvFt4ehH31zuflh8ZhXXm7q9dC3G7dumXNmjWZNGlSi+ONjY2ZPn16vv3tb2fNmjVZtmxZ87HNmzfnuuuuy8iRIzNixIgMHz48p59+esaPH5/evXsnSe65556MGjUqI0eOzGc/+9mcfPLJ6dGjR4t7vH7ek08+mQ996EO71Xr22Wenbdu2efrpp/f6fs4+++xUVVVl8ODBgltKwqZNm5r/YCF59XfuxRdfLGJFR4Z27dpl586du+3ftm1bKioO+9/HAAAAAABwgD7wgQ9kx44d+cAHPlDsUlqdffXO5+WHxm6dWrduXWpqavZr8qBBgzJo0KD9Ove1lbevvPJK88rbXb22OrCsrCx9+vRJXV1dBg8enCSZMWNGOnbs2Ly9J6+Ftsmrq3S/+c1vpra2tnnF7N7s7T9LQ0NDi5W/UOpe//22hUIhbdq8ZX+fccQ69dRTs27dut32/+EPf8iwYcPe+oIAAAAAANinX//612nXrl1+/etfp2/fvsUup1XZV+98Xn5o7JZcvve9793v8HZ/vD60vfXWWzNkyJDdzts1eGpoaGgROk2aNCn33XdfFi5cmFGjRr3hPU844YRUVVXl/vvv3+d5PXr0SF1dXfr3799i/5NPPplCoZDTTz89v/71r1sc29NfDEApOOmkk1qstP3zn/+cE088sYgVHRn69++fK6+8Mpdffnnzvp07d+a//uu/cttttxWxMgAAAAAA9qSuri4dO3ZMXV2d8PYA7at3Pi8/NA7rsrzly5dn5cqV6dq1ax588MH87ne/22NwmyQPPfRQmpqaUl9fn6VLl7b4gXfv3j3XXHNNFixYkDVr1iRJysvLs2PHjj1e65VXXsny5cvTrVu33Y7tOu8f/uEfsnz58txzzz3Ztm1bCoVCfvOb32TWrFm59NJLc8wxx+T444/P7373uzQ1NeXll1/OL3/5yz1eC4qtb9++WbZsWerr67Nz584sWbIkH/vYx4pd1tvee97znrRv3z733ntv876ampqMHTs2bdu2LWJlAAAAAADsSV1dXU477bTU1dUVu5RWZ1+983n5oXHYHjBdUVGRrl277nWl7Z5Mnjw59fX1ueCCC3Luuee2OHbyySdnzJgxmTlzZmbPnp2+fftm1qxZmThxYpJk4cKFWbRoUcrKynLUUUflwx/+cD7/+c/vdo9d51VVVeXmm2/O/PnzM27cuDQ0NDTf5+Mf/3iSVx8N/d///d8ZN25cTjrppHzkIx9JU1NTkuRDH/pQrr/++mzbti1XX331m2kXvGkf/ehH84c//CHXXHNNGhoa0q9fv1x44YXFLuuIcOedd2bq1KmZO3dutm7dmk984hOZOnVqscsCAAAAAGAP6urq0qtXrz0GkD/5yU9yww03JEmeeeaZ3H333enYsWMqKipSW1ubM844460ut6Tsq3eJz8sPhcMW3v7mN7/Z48rXvTn//PObv/d2V7um8yNGjMiIESOSJNXV1amurk6SVFVV5ZprrtnrtXd9DPSu85JXQ+HXf//uro4++uh87Wtf2+OxXr165Yc//OFe58JbbdSoUfv1aHEOreOOOy633357scsAAAAAAOAN7Ny5M3V1dRk3blzmz5+fnTt3tlgVOmTIkP1elHikeaPeJT4vPxQO22OTDyS4BQAAAAAAgMOtrq4ulZWVadeuXSorKz06+QDo3VvjsH7n7f6qqanZ46pbAAAAAAAAi9btEwAAGDpJREFUOFReCyCTCCAPkN69NUoivAUAAAAAAIDDTQB58PTurSG8BQAAAAAA4IgggDx4evfWKCsUCoVdd9TU1KSmpqZI5QCvqa2tzfjx44tdBn9TW1ubDRs2ZMaMGcUuBQAAAACAgzRo0KD89Kc/zfe+972MGzcuF110UR5++OFil9Uq6N1bw8pbgP1UU1OTQqFwRI158+YVvYbWOvRO7/SudQ290zu9a11D7/RO71rX0Du907vWNfRO7/SudQ29O/CxbNmytG3bNknStm3bLFu2rOg1tZahd29+7M/vrPAWAAAAAAAAoAQIbwEAAAAAAABKgPAWAAAAAAAAoAQIbwEAAAAAAABKgPAWAAAAAAAAoAQIbwEAAAAAAABKgPAWAAAAAAAAoAQIbwEAAAAAAABKgPAWACgpN954Y8rKyoyDGDfeeGOxf3wAAAAAwJtQUewCAAB2tXr16hQKhWKX0SqVlZUVuwQAAAAA4E2w8hYAAAAAAACgBAhvAQAAAAAAAEqA8BYAAAAAAACgBAhvAQAAAAAAAEqA8BYAAAAAAACgBJR8eFtdXZ1Nmzbttn/+/PlZtWpVkqShoSF33HFHPvOZz6S6ujpf+MIXsnDhwuZzH3nkkSxYsOCA773rvI0bN+biiy8+yHcBAAAAAAAAsG8VxS7gYD3++OPp2bNnkuS+++7L7373u8yZMycnnHBC/vjHP6ampibHH398qqqqsnr16jQ2Nh7wPQ52HgAAAAAAAMCBKonwtqamJscee2zq6+vz8ssvp1u3brnssstSVlbWfM5f/vKXXHfddRkyZEjKy8uzdu3a1NbWZuLEidmyZUs6deqU448/PklyyimnZOrUqUmSp556KkuWLEmSHHfccRk6dGjmzJmTjRs3ZsuWLenQoUOuvfbadOnSJf/v//2/HHvssXnssccycODA/OIXv2ieN2DAgBY1jxo1KsOGDcu6deuaV+V+8pOffCvaBQAAAAAAALwNlUR4mySNjY2ZPn16CoVCpk2blmXLlmXw4MFJks2bN+fmm2/OyJEjc8EFFyRJHn744Vx66aXp3bt3Tj/99MyaNSuf/exn06tXr7z//e9Pv3790rlz5yRJVVVVGhsb86lPfSpLlizJO9/5zlx77bVJkptuuikPPvhgxo4dmyQpFAr5t3/7tzQ2Nuboo49unrdx48bd6u3atWvGjh2bP/3pT7n88stTVVWVd7zjHW9RxwAAAAAAAIC3k92+83bu3LmpqKjYr/HBD37wkBUycODAJElZWVn69OmTurq65mMzZsxIeXl5c5j7eieccEK+/vWvZ/bs2enfv3+effbZfPGLX8zSpUt3O7eqqiqDBw/O4sWLc8cdd+Spp57KX//61+bjlZWVadOmTdq2bfuGNVdWViZJOnfunPLy8mzbtu2A3jMAAAAAAADAa3YLbydNmpSGhob9Go8//vghK6RQKDS/bmhoSJs2/1fapEmTctRRR2XhwoV7nPud73wnf/jDH9KxY8cMGDAgkyZNypVXXpkf/ehHu527cOHC3HzzzSkvL0///v3zsY99rMW9jznmmP2u+fUB767XAQAAAAAAADgQu4W3xfLQQw+lqakp9fX1Wbp0afr27dt8rHv37rnmmmuyYMGCrFmzJklSXl6eHTt2JEmampoyd+7crFu3Lo2NjXnxxRfzq1/9Kqeffvpu565YsSLDhg3L0KFDc8YZZ2TVqlVpamraY027zgMAAAAAAAA4nErmO2+TZPLkyamvr88FF1yQc889t8Wxk08+OWPGjMnMmTMze/bs9O3bN7NmzcrEiRNz5ZVX5vvf/36+9rWvZfPmzWnfvn369euXyy+/PEnyoQ99KNdff322bduW0aNHp7a2Nj/72c/S0NCQM888Mxs2bNhjPbvOu+SSSw77+wcAAAAAAACOXCUT3p5//vnN33u7q3vvvbf59YgRIzJixIgkSXV1daqrq5uPjR8/PuPHj9/jtXv16pUf/vCHzdvz5s3b43nXX3/9Puc98MADe6xrT9sAAAAAAAAAB6JkHpsMAAAAAAAAcCQriZW3NTU1xS4BAAAAAAAAoKisvAUAAAAAAAAoAcJbAAAAAAAAgBJQVigUCrvuqKmp8RhjKAG1tbUZP358scvgb2prazNhwoRilwFHhG7duuW3v/1tsctolbp3757Vq1cXuwwAAAAA4CBZeQuwnwqFwhE35s2bV/QaWuvQu4MfU6ZMKfave6s1ZcqUov/8WuvwO6t3ete6ht7pnd61rqF3eqd3rWvond7pXesaeqd3ete6xv70TngLAAAAAAAAUAKEtwAAAAAAAAAlQHgLAAAAAAAAUAKEtwAAAAAAAAAlQHgLAAAAAAAAUAKEtwAAAAAAAAAlQHgLAAAAAAAAUAKEtwAAAAAAAAAlQHgLAAAAAAAAUAKEtwAAAAAAAAAlQHgLAAAAAAAAUAKEtwAAAAAAAAAlQHgLAAAAAAAAUAKEtwAAAAAAAAAlQHgLAAAAAAAAUAJKPrytrq7Opk2bdts/f/78rFq1Kkly5513Zvjw4RkxYkSLMWvWrAO+3/Dhw/PKK69k48aNufjii990/QAAAAAAAAD7o6LYBRysxx9/PD179mzeHjJkSK666qoiVgQAAAAAAABw8EoivK2pqcmxxx6b+vr6vPzyy+nWrVsuu+yylJWVNZ/zl7/8Jdddd12GDBmS8vLyrF27NrW1tZk4ceJ+Xb9r16557rnn8uKLL+bMM8/M1VdfnTZt2mTlypW56667UlFRkbPPPnuv1xg1alSGDRuWdevWNa/K/eQnP3lI3j8AAAAAAABASYS3SdLY2Jjp06enUChk2rRpWbZsWQYPHpwk2bx5c26++eaMHDkyF1xwQZLk4YcfzqWXXprevXvn0UcfzZIlS/Lzn/+8xTUnT56cc889N0mydevWzJgxIw0NDbniiivy2GOPpVu3bvn2t7+dG264Ie973/vyk5/8JE1NTXutr2vXrhk7dmz+9Kc/5fLLL09VVVXe8Y53HMauAAAAAAAAAEeK3cLb733ve/nWt761X5P79OmT5cuXH5JCBg4cmCQpKytLnz59UldX1xzezpgxIx07dmze3pOqqqp9Pja5d+/eSZKKioqcfPLJ2bp1a5544ol06dIl73vf+5IkF110Ub773e/u9RqVlZVJks6dO6e8vDzbtm0T3gIAAAAAAACHRJvX7xg3bly2bdu2X+NQBbdJUigUml83NDSkTZv/K23SpEk56qijsnDhwoO+ftu2bfd6v9eUlZWlvLz8TV0DAAAAAAAA4GDsFt4Wy0MPPZSmpqbU19dn6dKl6du3b/Ox7t2755prrsmCBQuyZs2aJEl5eXl27Njxpu7Zo0ePvPDCC3nyySeTJD//+c+zffv2N3VNAAAAAAAAgINRMt95m7z6HbX19fW54IILmr+r9jUnn3xyxowZk5kzZ2b27Nnp27dvZs2alYkTJyZJfvrTn2bZsmUt5rzrXe/a52OQ27dvn2nTpjWf061bt7Rv3/4QvysAAAAAAACAN1Yy4e3555/f/L23u7r33nubX48YMSIjRoxIklRXV6e6urr52Be+8IW9Xrumpmav2x/84Adz6623Nm9/8YtfTPJqsPvAAw/ssY49bQMAAAAAAAC8GSXz2GQAAAAAAACAI1lJrLx9/cpYAAAAAAAAgCONlbcAAAAAAAAAJUB4CwAAAAAAAFACygqFQmHXHTU1NR5jDCWgtrY248ePL3YZ/E1tbW0mTJhQ7DIAAAAAAIC3MStvAfZToVA44sa8efOKXkNrHXqnd3rXuobe6Z3eta6hd3qnd61r6J3e6V3rGnqnd3rXuobe6Z3eta6xP70T3gIAAAAAAACUAOEtAAAAAAAAQAkQ3gIAAAAAAACUAOEtAAAAAAAAQAkQ3gIAAAAAAACUAOEtAAAAAAAAQAkQ3gIAAAAAAACUAOEtAAAAAAAAQAkQ3gIAJeXGG29MWVmZcRDjxhtvLPaPDwAAAAB4EyqKXQAAwK5Wr16dQqFQ7DJapbKysmKXAAAAAAC8CVbeAgAAAAAAAJQA4S0AAAAAAABACRDeAgAAAAAAAJQA4S0AAAAAAABACRDeAgAAAAAAAJSAkghv169fn3HjxuXSSy/NH//4x7f03i+++GK+8Y1vZNSoURk5cmQmT56cFStWNB+fP39+Vq1adcDX3XXekiVL8pWvfOWQ1QwAAAAAAAC8/ZREeLty5cp069Ytd999d0455ZS39N633HJLOnXqlB/84AdZuHBhxowZkxtuuCEbNmxIkjz++ONpamo64Ose7DwAAAAAAADgyFRR7AIeeeSRLFq0KDt37sysWbNy2mmn5Yknnsi6dety1llnZfLkyZkzZ042btyYLVu2pEOHDrn22mvTpUuX1NTU5KSTTsrzzz+fzZs355xzzklTU1PWrl2bTZs25Utf+lK6deuWl156Kbfddls2bNiQpqam9OvXL2PGjElZWVm2bNmSU045Je3atUuSnHPOOfnKV76SioqKLF68OGvXrk1tbW0mTpyYjh075vbbb8/27dvz5z//Od27d89XvvKVlJeXp7q6Ov3798+jjz6aqqqqFvN2dc8992T16tXZsWNHXn755ZSXl2fq1Kk58cQTi9F+AAAAAAAAoEQUfeVtv3798nd/93f52Mc+ln/6p39KkjzzzDOZO3duvvzlL+eXv/xl3vnOd+bmm2/OXXfdlVNPPTUPPvhg8/wtW7bk+uuvzz//8z9nwYIF6dmzZ66//voMGTIkixYtSpLMmTMnlZWVmTNnTr7zne9k7dq1WbJkSZLkiiuuyH/8x39kwoQJmTNnTpYuXZoPfOAD6dy5c4YPH57TTz8948ePT+/evfPjH/84F198cXMta9asyf/8z/8kSRobG3P22WfnX//1XzNu3LgW817v6aefzle/+tXMnDkzXbp0yeLFiw93mwEAAAAAAIASt9vK2x/+8Ie55ZZb9mvyxz/+8dx3332HvKgePXrk6KOPTpJUVVXl97//fRYvXpznnnsuTz31VItA9KMf/WiS5KSTTkqS9OrVK0nSqVOnPProoykUClm5cmWeffbZ/PjHP06SbNu2LZ07d06SdO/ePfPmzcv69evzv//7v1mxYkXuvPPOfPOb38x73/veFnVdeeWVWbVqVe65555s2LAhW7duzbZt25qPn3POOamoeOPFzD179mxe6XvaaaflueeeO5g2AQAAAAAAAG8juyWNn/70p1NTU1OEUv7PMccc0/x64cKFWbZsWYYPH57+/funoqIif/3rX5uPvz4sbdOm5WLiQqGQpqamTJ8+Pe9617uSJFu3bk1FRUX+/Oc/Z968eZk6dWpOPfXUnHrqqfnEJz6R7373u3nwwQczadKkFteaMWNGKioqMmDAgPTu3Tvr169PoVDYY9378vqad70GAAAAAAAAcGQq+mOT38iKFSsybNiwDB06NGeccUZWrVqVpqam/Z7fpk2bfPjDH87ChQtTKBSyffv2TJs2LcuWLcvxxx+fp59+OnfddVdeeOGFNDU15ZlnnslvfvOb5lW35eXl2bFjRxobG/Poo49m7NixGTRoUI466qg8/fTTe63ltXkAAAAAAAAA++ONn/FbZKNHj05tbW1+9rOfpaGhIWeeeWY2bNhwQNe4+uqrc/vtt2fSpElpampKv379MnTo0JSVleUb3/hG7rzzzlx11VWpr69Pp06dMnTo0HziE59IkvTt2zezZs3KxIkT87nPfS4zZsxIhw4d0q5du/Ts2TPPPvvsHu+56zwAAAAAAACAN1IS4e3IkSObX48ePbrFsY985COZN2/eHuft+njn8vLyPPDAA83b5513Xs4777wkyYknnphp06bt8RpdunTZ67Ekqa6uTnV1dfP2qFGj9nje/fffv895VVVVSVq+1z1tAwAAAAAAAEemkn9sMgAAAAAAAMCRQHgLAAAAAAAAUAKEtwAAAAAAAAAlQHgLAAAAAAAAUALKCoVCYdcdNTU1qampKVI5wGtqa2szfvz4YpfB39TW1mbChAnFLgOOCN26dctvf/vbYpfRKnXv3j2rV68udhkAAAAAwEGy8hZgPxUKhSNuzJs3r+g1tNahdwc/pkyZUuxf91ZrypQpRf/5tdbhd1bv9K51Db3TO71rXUPv9E7vWtfQO73Tu9Y19E7v9K51jf3pnfAWAAAAAAAAoAQIbwEAAAAAAABKgPAWAAAAAAAAoAQIbwEAAAAAAABKgPAWAAAAAAAAoAQIbwEAAAAAAABKgPAWAAAAAAAAoAQIbwEAAAAAAABKgPAWAAAAAAAAoAQIbwEAAAAAAABKgPAWAAAAAAAAoAQIbwEAAAAAAABKgPAWAAAAAAAAoAQIbwEAAAAAAABKgPAWAAAAAAAAoARUFLuAJFm/fn2mT5+ebdu2ZebMmTnllFPesnt/8YtfzLp161JWVtZi/xVXXJEhQ4bs93XuvvvubNmyJRMmTMiSJUvy0EMP5dvf/vahLhcAAAAAAAB4myqJ8HblypXp1q1bvvrVrxbl/lOmTMnAgQOLcm8AAAAAAACApATC20ceeSSLFi3Kzp07M2vWrJx22ml54oknsm7dupx11lmZPHly5syZk40bN2bLli3p0KFDrr322nTp0iU1NTU56aST8vzzz2fz5s0555xz0tTUlLVr12bTpk350pe+lG7duuWll17Kbbfdlg0bNqSpqSn9+vXLmDFjdlttuyejRo3KsGHDsm7dumzcuDEXX3xxPvnJT2b79u259dZb8+STT+b4449Phw4d0rVr193m33PPPVm9enV27NiRl19+OeXl5Zk6dWpOPPHEw9FOAAAAAAAAoJUqenjbr1+/PPvss9mwYUOuuuqqLFiwIM8880zmzp2bioqKPPzww3nnO9+Za6+9Nkly00035cEHH8zYsWOTJFu2bMn111+f559/Pp///Ofzta99LZ///OezaNGiLFq0KF/+8pczZ86c9OnTJ1/96lfT0NCQb37zm1myZEkuuuiiJMktt9ySW2+9tUVdd9xxR0444YQ0Njama9euGTt2bP70pz/l8ssvT1VVVRYsWJBt27bljjvuSH19faZMmbLH8DZJnn766dx2221p165dbr755ixevDif+9znDl9TAQAAAAAAgFZnt/D2sccey3vf+979mjx8+PDdQs9DoUePHjn66KOTJFVVVfn973+fxYsX57nnnstTTz2V3r17N5/70Y9+NEly0kknJUl69eqVJOnUqVMeffTRFAqFrFy5Ms8++2x+/OMfJ0m2bduWzp07N19j8uTJ+3xscmVlZZKkc+fOKS8vz7Zt21JXV5dLLrkkZWVlad++fQYNGpSXXnppj/N79uyZdu3aJUlOO+20PPfccwfVFwAAAAAAAODta7fw9r777itGHS0cc8wxza8XLlyYZcuWZfjw4enfv38qKiry17/+tfl4RUXLt9CmTZsW24VCIU1NTZk+fXre9a53JUm2bt2627x9adu27W7X3PXfPdWxq9cf23UeAAAAAAAAQJK0eeNTimvFihUZNmxYhg4dmjPOOCOrVq1KU1PTfs9v06ZNPvzhD2fhwoUpFArZvn17pk2blmXLlr2puvr06ZMlS5aksbEx27dvz/Lly9/U9QAAAAAAAIAjW9G/8/aNjB49OrW1tfnZz36WhoaGnHnmmdmwYcMBXePqq6/O7bffnkmTJqWpqSn9+vXL0KFDm4/fdNNN+c53vtNizoUXXpgrrrhin3XdfvvtmTBhQo477ri8+93vPrA3BgAAAAAAALCLkghvR44c2fx69OjRLY595CMfybx58/Y4r6ampvl1eXl5Hnjggebt8847L+edd16S5MQTT8y0adP2eI3Zs2fvs7Z77713r9tXXXXVHudUVVWlqqoqScv3tqdtAAAAAAAAgKQVPDYZAAAAAAAA4EggvAUAAAAAAAAoAcJbAAAAAAAAgBIgvAUAAAAAAAAoAWWFQqFQ7CKA3dXW1mb8+PHFLoO/qa2tzYQJE4pdBgAAAAAA8DZm5S3AfioUCkfcmDdvXtFraK1D7/RO71rX0Du907vWNfRO7/SudQ290zu9a11D7/RO71rX0Du907vWNfand8JbAAAAAAAAgBIgvAUAAAAAAAAoAcJbAAAAAAAAgBIgvAUAAAAAAAAoAcJbAAAAAAAAgBIgvAUAAAAAAAAoAcJbAAAAAAAAgBIgvAUAAAAAAAAoAcJbAAAAAAAAgBIgvAUAAAAAAAAoAcJbAAAAAAAAgBIgvAUAAAAAAAAoAf8fqxwiUD29XpcAAAAASUVORK5CYII=;" vertex="1" parent="1">
          <mxGeometry x="-220" y="10" width="1903" height="601" as="geometry" />
        </mxCell>
        <mxCell id="PTQCrg7iBzS0pHnHI-wC-2" value="" style="shape=flexArrow;endArrow=classic;html=1;rounded=0;fillColor=#80FF00;exitX=0.194;exitY=0.333;exitDx=0;exitDy=0;exitPerimeter=0;" edge="1" parent="1" source="PTQCrg7iBzS0pHnHI-wC-1">
          <mxGeometry width="50" height="50" relative="1" as="geometry">
            <mxPoint x="161" y="180" as="sourcePoint" />
            <mxPoint x="180" y="130" as="targetPoint" />
          </mxGeometry>
        </mxCell>
        <mxCell id="PTQCrg7iBzS0pHnHI-wC-4" value="&lt;b&gt;&lt;font style=&quot;font-size: 16px;&quot;&gt;5 Pushed onto FIFO&lt;/font&gt;&lt;/b&gt;" style="rounded=0;whiteSpace=wrap;html=1;fillColor=#80FF00;" vertex="1" parent="1">
          <mxGeometry x="40" y="210" width="120" height="60" as="geometry" />
        </mxCell>
        <mxCell id="PTQCrg7iBzS0pHnHI-wC-5" value="&lt;b&gt;&lt;font style=&quot;font-size: 16px;&quot;&gt;Pop asserted and 5 output to Packet Parser&lt;/font&gt;&lt;/b&gt;" style="rounded=0;whiteSpace=wrap;html=1;fillColor=#80FF00;" vertex="1" parent="1">
          <mxGeometry x="150" y="360" width="120" height="60" as="geometry" />
        </mxCell>
        <mxCell id="PTQCrg7iBzS0pHnHI-wC-6" value="" style="shape=flexArrow;endArrow=classic;html=1;rounded=0;fillColor=#80FF00;exitX=0.971;exitY=0.033;exitDx=0;exitDy=0;exitPerimeter=0;entryX=0.279;entryY=0.516;entryDx=0;entryDy=0;entryPerimeter=0;" edge="1" parent="1" source="PTQCrg7iBzS0pHnHI-wC-5" target="PTQCrg7iBzS0pHnHI-wC-1">
          <mxGeometry width="50" height="50" relative="1" as="geometry">
            <mxPoint x="300" y="360" as="sourcePoint" />
            <mxPoint x="331" y="280" as="targetPoint" />
          </mxGeometry>
        </mxCell>
        <mxCell id="PTQCrg7iBzS0pHnHI-wC-7" value="&lt;b&gt;&lt;font style=&quot;font-size: 16px;&quot;&gt;sideband signals succesfully output&lt;/font&gt;&lt;/b&gt;" style="rounded=0;whiteSpace=wrap;html=1;fillColor=#80FF00;" vertex="1" parent="1">
          <mxGeometry x="490" y="470" width="130" height="90" as="geometry" />
        </mxCell>
        <mxCell id="PTQCrg7iBzS0pHnHI-wC-8" value="" style="shape=flexArrow;endArrow=classic;html=1;rounded=0;fillColor=#80FF00;exitX=0.019;exitY=0.424;exitDx=0;exitDy=0;exitPerimeter=0;entryX=0.326;entryY=0.849;entryDx=0;entryDy=0;entryPerimeter=0;" edge="1" parent="1" source="PTQCrg7iBzS0pHnHI-wC-7" target="PTQCrg7iBzS0pHnHI-wC-1">
          <mxGeometry width="50" height="50" relative="1" as="geometry">
            <mxPoint x="499.3340000000003" y="679.865" as="sourcePoint" />
            <mxPoint x="321" y="480" as="targetPoint" />
          </mxGeometry>
        </mxCell>
        <mxCell id="PTQCrg7iBzS0pHnHI-wC-9" value="&lt;b&gt;&lt;font style=&quot;font-size: 16px;&quot;&gt;Next packet requested correctly&lt;/font&gt;&lt;/b&gt;" style="rounded=0;whiteSpace=wrap;html=1;fillColor=#80FF00;" vertex="1" parent="1">
          <mxGeometry x="830" width="130" height="90" as="geometry" />
        </mxCell>
        <mxCell id="PTQCrg7iBzS0pHnHI-wC-10" value="" style="shape=flexArrow;endArrow=classic;html=1;rounded=0;fillColor=#80FF00;exitX=0.5;exitY=1;exitDx=0;exitDy=0;entryX=0.625;entryY=0.25;entryDx=0;entryDy=0;entryPerimeter=0;" edge="1" parent="1" source="PTQCrg7iBzS0pHnHI-wC-9" target="PTQCrg7iBzS0pHnHI-wC-1">
          <mxGeometry width="50" height="50" relative="1" as="geometry">
            <mxPoint x="902" y="100" as="sourcePoint" />
            <mxPoint x="810" y="112" as="targetPoint" />
          </mxGeometry>
        </mxCell>
        <mxCell id="PTQCrg7iBzS0pHnHI-wC-11" value="&lt;b&gt;&lt;font style=&quot;font-size: 16px;&quot;&gt;AXI-Packet Count Incremented&lt;/font&gt;&lt;/b&gt;" style="rounded=0;whiteSpace=wrap;html=1;fillColor=#80FF00;" vertex="1" parent="1">
          <mxGeometry x="1350" y="500" width="130" height="90" as="geometry" />
        </mxCell>
        <mxCell id="PTQCrg7iBzS0pHnHI-wC-12" value="" style="shape=flexArrow;endArrow=classic;html=1;rounded=0;fillColor=#80FF00;exitX=0.923;exitY=0.111;exitDx=0;exitDy=0;entryX=0.92;entryY=0.782;entryDx=0;entryDy=0;entryPerimeter=0;exitPerimeter=0;" edge="1" parent="1" source="PTQCrg7iBzS0pHnHI-wC-11" target="PTQCrg7iBzS0pHnHI-wC-1">
          <mxGeometry width="50" height="50" relative="1" as="geometry">
            <mxPoint x="1470" y="350" as="sourcePoint" />
            <mxPoint x="1544" y="420" as="targetPoint" />
          </mxGeometry>
        </mxCell>
        <mxCell id="PTQCrg7iBzS0pHnHI-wC-13" value="&lt;b&gt;&lt;font style=&quot;font-size: 16px;&quot;&gt;Ready asserted correctly&lt;/font&gt;&lt;/b&gt;" style="rounded=0;whiteSpace=wrap;html=1;fillColor=#80FF00;" vertex="1" parent="1">
          <mxGeometry x="860" y="430" width="120" height="60" as="geometry" />
        </mxCell>
        <mxCell id="PTQCrg7iBzS0pHnHI-wC-14" value="" style="shape=flexArrow;endArrow=classic;html=1;rounded=0;fillColor=#80FF00;exitX=0.542;exitY=-0.03;exitDx=0;exitDy=0;exitPerimeter=0;entryX=0.326;entryY=0.849;entryDx=0;entryDy=0;entryPerimeter=0;" edge="1" parent="1" source="PTQCrg7iBzS0pHnHI-wC-13">
          <mxGeometry width="50" height="50" relative="1" as="geometry">
            <mxPoint x="1022" y="348" as="sourcePoint" />
            <mxPoint x="930" y="360" as="targetPoint" />
          </mxGeometry>
        </mxCell>
      </root>
    </mxGraphModel>
  </diagram>
</mxfile>
